<svg width="24" height="25" viewBox="0 0 24 25" fill="none" xmlns="http://www.w3.org/2000/svg">
<path d="M12 2.75C6.62391 2.75 2.25 7.12391 2.25 12.5C2.25 17.8761 6.62391 22.25 12 22.25C17.3761 22.25 21.75 17.8761 21.75 12.5C21.75 7.12391 17.3761 2.75 12 2.75ZM17.0742 9.23234L10.7742 16.7323C10.7051 16.8147 10.6191 16.8812 10.5221 16.9273C10.425 16.9735 10.3192 16.9983 10.2117 17H10.1991C10.0939 17 9.99 16.9778 9.89398 16.935C9.79797 16.8922 9.71202 16.8297 9.64172 16.7516L6.94172 13.7516C6.87315 13.6788 6.81981 13.5931 6.78483 13.4995C6.74986 13.4059 6.73395 13.3062 6.73805 13.2063C6.74215 13.1064 6.76617 13.0084 6.8087 12.9179C6.85124 12.8275 6.91142 12.7464 6.98572 12.6796C7.06002 12.6127 7.14694 12.5614 7.24136 12.5286C7.33579 12.4958 7.43581 12.4822 7.53556 12.4886C7.63531 12.495 7.73277 12.5213 7.82222 12.5659C7.91166 12.6106 7.99128 12.6726 8.05641 12.7484L10.1794 15.1072L15.9258 8.26766C16.0547 8.11863 16.237 8.02631 16.4335 8.01066C16.6299 7.99501 16.8246 8.05728 16.9754 8.18402C17.1263 8.31075 17.2212 8.49176 17.2397 8.68793C17.2582 8.8841 17.1988 9.07966 17.0742 9.23234Z" fill="#38D189"/>
</svg>
