<svg width="562" height="423" viewBox="0 0 562 423" fill="none" xmlns="http://www.w3.org/2000/svg">
<path d="M104.216 371.848L83.2461 181.119C82.6841 176.026 84.1945 170.898 87.3909 166.894L167.757 66.9632C171.937 61.7647 178.54 59.0952 185.179 59.903L412.894 88.003C420.025 88.8812 426.101 93.6582 428.63 100.402L475.382 225.307C476.506 228.292 476.857 231.489 476.435 234.615L458.241 371.848H104.216Z" fill="#F4F4F4"/>
<path d="M169.935 222.6C178.664 222.6 185.741 215.524 185.741 206.794C185.741 198.064 178.664 190.988 169.935 190.988C161.205 190.988 154.128 198.064 154.128 206.794C154.128 215.524 161.205 222.6 169.935 222.6Z" fill="white"/>
<path d="M162.77 202.296C162.77 200.856 163.929 199.697 165.369 199.697C166.809 199.697 167.968 200.856 167.968 202.296C167.968 203.736 166.809 204.895 165.369 204.895C163.929 204.895 162.77 203.736 162.77 202.296Z" fill="#FFBD3A"/>
<path d="M164.244 211.992L173.869 199.698C174.009 199.522 174.22 199.522 174.396 199.628L175.871 200.787C176.046 200.927 176.046 201.138 175.941 201.314L166.317 213.608C166.176 213.783 165.966 213.783 165.79 213.678L164.315 212.519C164.139 212.378 164.104 212.167 164.244 211.992Z" fill="#FFBD3A"/>
<path d="M174.501 214.066C173.061 214.066 171.902 212.907 171.902 211.467C171.902 210.027 173.061 208.868 174.501 208.868C175.941 208.868 177.1 210.027 177.1 211.467C177.1 212.907 175.941 214.066 174.501 214.066Z" fill="#FFBD3A"/>
<g opacity="0.4">
<path opacity="0.4" d="M162.77 202.296C162.77 200.856 163.929 199.697 165.369 199.697C166.809 199.697 167.968 200.856 167.968 202.296C167.968 203.736 166.809 204.896 165.369 204.896C163.929 204.896 162.77 203.736 162.77 202.296Z" fill="white"/>
<path opacity="0.4" d="M164.245 211.99L173.869 199.696C174.01 199.52 174.22 199.52 174.396 199.626L175.871 200.785C176.047 200.925 176.047 201.136 175.942 201.312L166.317 213.606C166.177 213.781 165.966 213.781 165.79 213.676L164.315 212.517C164.14 212.376 164.104 212.165 164.245 211.99Z" fill="white"/>
<path opacity="0.4" d="M174.501 214.062C173.061 214.062 171.902 212.903 171.902 211.463C171.902 210.023 173.061 208.863 174.501 208.863C175.941 208.863 177.1 210.023 177.1 211.463C177.1 212.903 175.941 214.062 174.501 214.062Z" fill="white"/>
</g>
<path d="M155.99 158.008C164.719 158.008 171.796 150.931 171.796 142.202C171.796 133.472 164.719 126.395 155.99 126.395C147.26 126.395 140.184 133.472 140.184 142.202C140.184 150.931 147.26 158.008 155.99 158.008Z" fill="white"/>
<path d="M164.491 136.789C164.42 136.718 164.315 136.648 164.21 136.648H150.651L150.265 134.787C150.23 134.611 150.089 134.506 149.914 134.506H147.771C147.56 134.506 147.42 134.681 147.42 134.857C147.42 135.032 147.596 135.208 147.771 135.208H149.633L151.354 143.884C151.6 145.043 152.618 145.886 153.813 145.886H162.032C162.243 145.886 162.383 145.71 162.383 145.535C162.383 145.359 162.208 145.184 162.032 145.184H153.813C153.216 145.184 152.689 144.903 152.373 144.446L162.805 143.041C162.945 143.006 163.086 142.9 163.121 142.76L164.561 137.07C164.561 136.999 164.561 136.859 164.491 136.789Z" fill="#FFBD3A"/>
<path d="M160.917 150.184C161.894 150.025 162.557 149.105 162.399 148.129C162.24 147.152 161.32 146.489 160.343 146.647C159.367 146.806 158.703 147.726 158.862 148.703C159.021 149.679 159.94 150.343 160.917 150.184Z" fill="#FFBD3A"/>
<path d="M153.496 150.207C154.486 150.207 155.288 149.405 155.288 148.415C155.288 147.426 154.486 146.624 153.496 146.624C152.507 146.624 151.705 147.426 151.705 148.415C151.705 149.405 152.507 150.207 153.496 150.207Z" fill="#FFBD3A"/>
<g opacity="0.4">
<path opacity="0.4" d="M164.491 136.789C164.42 136.718 164.315 136.648 164.21 136.648H150.651L150.265 134.787C150.23 134.611 150.089 134.506 149.914 134.506H147.771C147.56 134.506 147.42 134.681 147.42 134.857C147.42 135.032 147.596 135.208 147.771 135.208H149.633L151.354 143.884C151.6 145.043 152.618 145.886 153.813 145.886H162.032C162.243 145.886 162.383 145.71 162.383 145.535C162.383 145.359 162.208 145.184 162.032 145.184H153.813C153.216 145.184 152.689 144.903 152.373 144.446L162.805 143.041C162.945 143.006 163.086 142.9 163.121 142.76L164.561 137.07C164.561 136.999 164.561 136.859 164.491 136.789Z" fill="white"/>
<path opacity="0.4" d="M160.918 150.184C161.895 150.025 162.558 149.105 162.399 148.129C162.241 147.152 161.321 146.489 160.344 146.647C159.367 146.806 158.704 147.726 158.863 148.703C159.022 149.679 159.941 150.343 160.918 150.184Z" fill="white"/>
<path opacity="0.4" d="M153.497 150.207C154.486 150.207 155.288 149.405 155.288 148.415C155.288 147.426 154.486 146.624 153.497 146.624C152.508 146.624 151.706 147.426 151.706 148.415C151.706 149.405 152.508 150.207 153.497 150.207Z" fill="white"/>
</g>
<path d="M464.599 372.372H95.6106C95.4701 372.372 95.3296 372.267 95.3296 372.091C95.3296 371.915 95.4701 371.81 95.6106 371.81H464.599C464.739 371.81 464.88 371.915 464.88 372.091C464.88 372.267 464.774 372.372 464.599 372.372Z" fill="#B2B6BB"/>
<path d="M241.906 109.883C250.635 109.883 257.712 102.806 257.712 94.0765C257.712 85.3469 250.635 78.2703 241.906 78.2703C233.176 78.2703 226.1 85.3469 226.1 94.0765C226.1 102.806 233.176 109.883 241.906 109.883Z" fill="white"/>
<path d="M237.41 91.7229H238.956L241.976 87.1918L242.222 84.6628C242.257 84.2764 242.679 84.0305 243.03 84.2062C243.698 84.5223 244.365 85.4004 244.365 87.8943C244.365 90.7043 244.4 90.8799 244.4 90.8799L249.107 90.915C249.704 90.915 250.161 91.3717 250.196 91.9688C250.231 93.7602 250.301 97.3429 250.336 99.345C250.371 100.715 249.528 101.979 248.264 102.296C248.088 102.331 247.913 102.366 247.737 102.366C246.472 102.366 240.08 101.347 240.08 101.347H237.445V91.7229H237.41Z" fill="#FFBD3A"/>
<path d="M233.02 91.7253L233.968 101.49H236.602V91.7253H233.02Z" fill="#FFBD3A"/>
<g opacity="0.4">
<g opacity="0.4">
<path opacity="0.4" d="M237.41 91.7234H238.956L241.976 87.1923L242.222 84.6633C242.257 84.2769 242.679 84.031 243.03 84.2067C243.698 84.5228 244.365 85.4009 244.365 87.8948C244.365 90.7048 244.4 90.8804 244.4 90.8804L249.107 90.9155C249.704 90.9155 250.161 91.3722 250.196 91.9693C250.231 93.7607 250.301 97.3434 250.336 99.3455C250.371 100.715 249.528 101.98 248.264 102.296C248.088 102.331 247.913 102.366 247.737 102.366C246.472 102.366 240.08 101.348 240.08 101.348H237.445V91.7234H237.41Z" fill="white"/>
</g>
<g opacity="0.4">
<path opacity="0.4" d="M233.02 91.7246L233.968 101.489H236.602V91.7246H233.02Z" fill="white"/>
</g>
</g>
<path d="M313.807 371.847H291.221C288.481 371.847 286.269 369.634 286.269 366.894V120.106C286.269 117.366 288.481 115.153 291.221 115.153H313.807C321.218 115.153 327.259 121.16 327.259 128.606V358.394C327.259 365.805 321.253 371.847 313.807 371.847Z" fill="#21252B"/>
<path d="M305.166 371.847H197.332C189.359 371.847 182.861 365.384 182.861 357.375V129.625C182.861 121.651 189.324 115.153 197.332 115.153H305.166C313.139 115.153 319.638 121.616 319.638 129.625V357.375C319.602 365.349 313.139 371.847 305.166 371.847Z" fill="#61656D"/>
<path d="M304.991 121.055H277.066C275.169 121.055 273.519 122.39 273.167 124.287C272.816 126.148 271.165 127.518 269.268 127.518H233.195C231.298 127.518 229.647 126.183 229.296 124.287C228.945 122.425 227.294 121.055 225.397 121.055H197.473C192.52 121.055 188.516 125.059 188.516 130.012V356.955C188.516 361.907 192.52 365.912 197.473 365.912H304.955C309.908 365.912 313.912 361.907 313.912 356.955V130.012C313.912 125.059 309.908 121.055 304.991 121.055Z" fill="#FFBD3A"/>
<path opacity="0.7" d="M304.991 121.055H277.066C275.169 121.055 273.519 122.39 273.167 124.287C272.816 126.148 271.165 127.518 269.268 127.518H233.195C231.298 127.518 229.647 126.183 229.296 124.287C228.945 122.425 227.294 121.055 225.397 121.055H197.473C192.52 121.055 188.516 125.059 188.516 130.012V356.955C188.516 361.907 192.52 365.912 197.473 365.912H304.955C309.908 365.912 313.912 361.907 313.912 356.955V130.012C313.912 125.059 309.908 121.055 304.991 121.055Z" fill="white"/>
<path opacity="0.5" d="M265.651 123.092H236.848C236.286 123.092 235.83 122.636 235.83 122.074C235.83 121.512 236.286 121.055 236.848 121.055H265.651C266.213 121.055 266.669 121.512 266.669 122.074C266.669 122.636 266.213 123.092 265.651 123.092Z" fill="black"/>
<path d="M304.991 121.055L293.118 150.595H270.252L282.054 121.055H304.991Z" fill="#FFBD3A"/>
<path d="M282.124 121.055L270.252 150.595H247.385L259.187 121.055H282.124Z" fill="#3F4249"/>
<path d="M259.258 121.055L247.385 150.595H224.554L236.321 121.055H259.258Z" fill="#FFBD3A"/>
<path d="M236.391 121.055L224.554 150.595H201.688L213.455 121.055H236.391Z" fill="#3F4249"/>
<path d="M213.525 121.051L201.652 150.591H178.716L187.989 127.479C189.569 123.58 193.328 121.016 197.543 121.016H213.525V121.051Z" fill="#FFBD3A"/>
<path d="M304.991 121.055L293.118 150.595H270.252L282.054 121.055H304.991Z" fill="#FFBD3A"/>
<path d="M259.258 121.055L247.385 150.595H224.554L236.321 121.055H259.258Z" fill="#FFBD3A"/>
<path d="M213.525 121.051L201.652 150.591H178.716L187.989 127.479C189.569 123.58 193.328 121.016 197.543 121.016H213.525V121.051Z" fill="#FFBD3A"/>
<path d="M293.118 150.595H313.912V130.012C313.912 125.059 309.908 121.055 304.955 121.055L293.118 150.595Z" fill="#21252B"/>
<path d="M178.751 150.596H201.688V153.581C201.688 159.904 196.56 165.032 190.237 165.032C183.915 165.032 178.787 159.904 178.787 153.581V150.596H178.751Z" fill="#FFBD3A"/>
<path d="M201.618 150.596H224.554V153.581C224.554 159.904 219.426 165.032 213.104 165.032C206.781 165.032 201.653 159.904 201.653 153.581V150.596H201.618Z" fill="#21252B"/>
<path d="M224.484 150.596H247.421V153.581C247.421 159.904 242.292 165.032 235.97 165.032C229.647 165.032 224.519 159.904 224.519 153.581V150.596H224.484Z" fill="#FFBD3A"/>
<path d="M247.315 150.596H270.252V153.581C270.252 159.904 265.123 165.032 258.801 165.032C252.478 165.032 247.35 159.904 247.35 153.581V150.596H247.315Z" fill="#21252B"/>
<path d="M270.182 150.596H293.118V153.581C293.118 159.904 287.99 165.032 281.668 165.032C275.345 165.032 270.217 159.904 270.217 153.581V150.596H270.182Z" fill="#FFBD3A"/>
<path opacity="0.3" d="M178.751 150.596H201.688V153.581C201.688 159.904 196.56 165.032 190.237 165.032C183.915 165.032 178.787 159.904 178.787 153.581V150.596H178.751Z" fill="black"/>
<path opacity="0.3" d="M224.484 150.596H247.421V153.581C247.421 159.904 242.292 165.032 235.97 165.032C229.647 165.032 224.519 159.904 224.519 153.581V150.596H224.484Z" fill="black"/>
<path opacity="0.3" d="M270.182 150.596H293.118V153.581C293.118 159.904 287.99 165.032 281.668 165.032C275.345 165.032 270.217 159.904 270.217 153.581V150.596H270.182Z" fill="black"/>
<path d="M280.965 181.892H224.449C219.882 181.892 216.194 185.58 216.194 190.146V246.662C216.194 251.228 219.882 254.916 224.449 254.916H280.965C285.531 254.916 289.219 251.228 289.219 246.662V190.146C289.219 185.615 285.531 181.892 280.965 181.892Z" fill="#FFBD3A"/>
<g opacity="0.5">
<path opacity="0.5" d="M280.964 181.891H224.448C219.882 181.891 216.194 185.579 216.194 190.145V246.661C216.194 251.228 219.882 254.916 224.448 254.916H280.964C285.531 254.916 289.219 251.228 289.219 246.661V190.145C289.219 185.614 285.531 181.891 280.964 181.891Z" fill="white"/>
</g>
<path d="M278.188 182.155H221.672C217.106 182.155 213.417 185.843 213.417 190.409V246.925C213.417 251.492 217.106 255.18 221.672 255.18H278.188C282.754 255.18 286.442 251.492 286.442 246.925V190.409C286.442 185.878 282.754 182.155 278.188 182.155Z" fill="white"/>
<path d="M296.35 291.693H206.149C204.779 291.693 203.655 290.569 203.655 289.199C203.655 287.829 204.779 286.705 206.149 286.705H296.35C297.72 286.705 298.844 287.829 298.844 289.199C298.844 290.569 297.72 291.693 296.35 291.693Z" fill="white"/>
<path d="M296.35 276.796H206.149C204.779 276.796 203.655 275.672 203.655 274.302C203.655 272.933 204.779 271.809 206.149 271.809H296.35C297.72 271.809 298.844 272.933 298.844 274.302C298.844 275.672 297.72 276.796 296.35 276.796Z" fill="white"/>
<path d="M280.192 306.584H222.271C220.901 306.584 219.777 305.46 219.777 304.091C219.777 302.721 220.901 301.597 222.271 301.597H280.192C281.562 301.597 282.686 302.721 282.686 304.091C282.686 305.46 281.562 306.584 280.192 306.584Z" fill="white"/>
<path d="M411.103 253.614H370.674V275.673H411.103V253.614Z" fill="#B2B6BB"/>
<path d="M411.103 253.614H402.498V275.673H411.103V253.614Z" fill="#61656D"/>
<path d="M420.868 260.007L416.407 238.125" stroke="#868A91" stroke-width="0.129787" stroke-miterlimit="10"/>
<path d="M422.097 230.748L421.465 259.199" stroke="#868A91" stroke-width="0.129787" stroke-miterlimit="10"/>
<path d="M428.56 236.018L421.781 244.553" stroke="#868A91" stroke-width="0.129787" stroke-miterlimit="10"/>
<path d="M424.24 265.454L423.572 264.435C422.905 263.417 422.554 262.222 422.554 260.993V258.569H419.954V260.993C419.954 262.222 419.603 263.417 418.936 264.435L418.269 265.454C416.864 267.596 416.407 270.196 417.039 272.69L417.812 275.675H424.767L425.539 272.69C426.066 270.196 425.645 267.596 424.24 265.454Z" fill="#868A91"/>
<path d="M424.24 265.454L423.573 264.435C422.905 263.417 422.554 262.222 422.554 260.993V258.569H421.816V260.993C421.816 262.222 422.133 263.241 422.659 264.4L423.432 265.875C425.329 270.196 421.746 275.675 421.746 275.675H424.732L425.504 272.69C426.066 270.196 425.645 267.596 424.24 265.454Z" fill="#61656D"/>
<path d="M419.111 251.474L427.19 244.765" stroke="#868A91" stroke-width="0.129787" stroke-miterlimit="10"/>
<path d="M413.035 249.965L420.166 256.709" stroke="#868A91" stroke-width="0.129787" stroke-miterlimit="10"/>
<path d="M424.521 241.11L425.645 236.193C426.031 234.437 428.138 233.699 429.543 234.823C430.948 235.947 430.703 238.125 429.087 238.898L424.521 241.11Z" fill="#FFBD3A"/>
<path opacity="0.3" d="M424.521 241.11L425.645 236.193C426.031 234.437 428.138 233.699 429.543 234.823C430.948 235.947 430.703 238.125 429.087 238.898L424.521 241.11Z" fill="white"/>
<path d="M430.457 236.79C430.457 237.668 429.965 238.511 429.087 238.932L424.556 241.11L429.544 234.858C430.176 235.35 430.457 236.052 430.457 236.79Z" fill="#FFBD3A"/>
<path d="M421.956 238.934L418.76 232.296C417.601 229.942 419.322 227.203 421.956 227.203C424.591 227.203 426.312 229.942 425.153 232.296L421.956 238.934Z" fill="#FFBD3A"/>
<path opacity="0.3" d="M421.956 238.934L418.76 232.296C417.601 229.942 419.322 227.203 421.956 227.203C424.591 227.203 426.312 229.942 425.153 232.296L421.956 238.934Z" fill="white"/>
<path opacity="0.3" d="M422.097 227.203L421.957 238.934L425.153 232.296C426.277 229.978 424.626 227.308 422.097 227.203Z" fill="white"/>
<path d="M418.409 247.787L413.738 242.237C412.087 240.27 413.035 237.215 415.564 236.582C418.058 235.95 420.376 238.163 419.884 240.692L418.409 247.787Z" fill="#FFBD3A"/>
<path opacity="0.3" d="M419.849 240.653C420.376 238.124 418.058 235.911 415.529 236.543L418.374 247.713L419.849 240.653Z" fill="white"/>
<path d="M417.742 254.387L415.634 249.083C414.862 247.186 412.403 246.73 411.033 248.24C409.663 249.75 410.331 252.174 412.262 252.771L417.742 254.387Z" fill="#FFBD3A"/>
<path opacity="0.3" d="M417.742 254.387L415.634 249.083C414.862 247.186 412.403 246.73 411.033 248.24C409.663 249.75 410.331 252.174 412.262 252.771L417.742 254.387Z" fill="white"/>
<path opacity="0.3" d="M411.103 248.135L417.742 254.387L415.634 249.083C414.861 247.221 412.508 246.765 411.103 248.135Z" fill="white"/>
<path d="M421.29 249.754L423.608 244.134C424.416 242.132 427.05 241.675 428.49 243.291C429.93 244.907 429.193 247.471 427.12 248.068L421.29 249.754Z" fill="#FFBD3A"/>
<path opacity="0.3" d="M421.29 249.754L423.608 244.134C424.416 242.132 427.05 241.675 428.49 243.291C429.93 244.907 429.193 247.471 427.12 248.068L421.29 249.754Z" fill="white"/>
<path d="M421.5 256.565L432.529 250.524" stroke="#868A91" stroke-width="0.129787" stroke-miterlimit="10"/>
<path d="M423.327 255.548L427.331 250.069C428.771 248.137 431.722 248.312 432.846 250.455C433.97 252.598 432.494 255.162 430.106 255.267L423.327 255.548Z" fill="#FFBD3A"/>
<path opacity="0.3" d="M423.327 255.548L427.331 250.069C428.771 248.137 431.722 248.312 432.846 250.455C433.97 252.598 432.494 255.162 430.106 255.267L423.327 255.548Z" fill="white"/>
<path d="M432.951 253.368C432.459 254.422 431.405 255.265 430.106 255.3L423.327 255.581L432.846 250.488C433.337 251.436 433.337 252.49 432.951 253.368Z" fill="#FFBD3A"/>
<path opacity="0.3" d="M423.608 244.132L421.29 249.752L428.49 243.289C427.05 241.708 424.416 242.13 423.608 244.132Z" fill="white"/>
<path d="M427.998 278.065H451.567C452.234 278.065 452.761 277.538 452.761 276.871C452.761 276.203 452.234 275.676 451.567 275.676H427.998V278.065Z" fill="#B2B6BB"/>
<path d="M448.511 276.904H424.731V350.14H448.511V276.904Z" fill="#B2B6BB"/>
<path d="M425.469 276.904H345.7V350.14H425.469V276.904Z" fill="#DADDDF"/>
<path d="M421.781 344.555H349.107V287.09L421.781 287.161V344.555ZM349.634 344.028H421.254V287.687H349.634V344.028Z" fill="#B2B6BB"/>
<path d="M342.996 278.065H428.033C428.701 278.065 429.227 277.538 429.227 276.871C429.227 276.203 428.701 275.676 428.033 275.676H342.996C342.328 275.676 341.801 276.203 341.801 276.871C341.836 277.538 342.363 278.065 342.996 278.065Z" fill="#DADDDF"/>
<path d="M349.094 315.974H421.767V315.447H349.094V315.974Z" fill="#B2B6BB"/>
<path d="M382.617 296.327C383.625 296.327 384.443 295.51 384.443 294.501C384.443 293.492 383.625 292.674 382.617 292.674C381.608 292.674 380.79 293.492 380.79 294.501C380.79 295.51 381.608 296.327 382.617 296.327Z" fill="#B2B6BB"/>
<path opacity="0.15" d="M383.284 294.501C383.284 293.693 382.757 293.026 382.055 292.78C382.23 292.709 382.441 292.674 382.652 292.674C383.67 292.674 384.478 293.482 384.478 294.501C384.478 295.519 383.67 296.327 382.652 296.327C382.441 296.327 382.265 296.292 382.055 296.222C382.757 295.976 383.284 295.309 383.284 294.501Z" fill="black"/>
<path d="M382.617 324.604C383.625 324.604 384.443 323.786 384.443 322.777C384.443 321.768 383.625 320.951 382.617 320.951C381.608 320.951 380.79 321.768 380.79 322.777C380.79 323.786 381.608 324.604 382.617 324.604Z" fill="#B2B6BB"/>
<path opacity="0.15" d="M383.284 322.777C383.284 321.969 382.757 321.302 382.055 321.056C382.23 320.986 382.441 320.951 382.652 320.951C383.67 320.951 384.478 321.759 384.478 322.777C384.478 323.796 383.67 324.604 382.652 324.604C382.441 324.604 382.265 324.569 382.055 324.498C382.757 324.252 383.284 323.585 383.284 322.777Z" fill="black"/>
<path d="M429.192 280.521L425.469 278.062H345.7V279.186L429.192 280.521Z" fill="#B2B6BB"/>
<path d="M443.84 350.14L445.666 370.407C445.807 371.145 445.245 371.847 444.507 371.847C444.015 371.847 443.559 371.531 443.383 371.039L438.079 350.14H443.84Z" fill="#DADDDF"/>
<path d="M443.172 361.907L440.959 361.38L438.114 350.14H443.875L445.701 370.407C445.807 370.969 445.49 371.531 444.999 371.742L443.172 361.907Z" fill="#B2B6BB"/>
<path d="M423.151 350.14L424.977 370.407C425.118 371.145 424.556 371.847 423.818 371.847C423.326 371.847 422.87 371.531 422.694 371.039L417.39 350.14H423.151Z" fill="#DADDDF"/>
<path d="M421.219 352.388L417.918 351.756L417.355 350.14H423.116L424.943 370.407C425.048 370.969 424.732 371.531 424.24 371.742L421.219 352.388Z" fill="#B2B6BB"/>
<path d="M370.534 350.14L368.707 370.407C368.567 371.145 369.129 371.847 369.866 371.847C370.358 371.847 370.815 371.531 370.99 371.039L376.294 350.14H370.534Z" fill="#DADDDF"/>
<path d="M371.552 360.924L369.585 360.432L370.534 350.14H376.294L370.99 371.039C370.815 371.531 370.358 371.847 369.866 371.847C369.831 371.847 369.831 371.847 369.796 371.847L371.552 360.924Z" fill="#B2B6BB"/>
<path d="M349.283 350.14L347.457 370.407C347.316 371.145 347.878 371.847 348.616 371.847C349.108 371.847 349.564 371.531 349.74 371.039L355.044 350.14H349.283Z" fill="#DADDDF"/>
<path d="M351.531 351.896L349.002 351.44L349.283 350.14H355.044L349.74 371.039C349.564 371.531 349.107 371.847 348.616 371.847C348.581 371.847 348.581 371.847 348.545 371.847L351.531 351.896Z" fill="#B2B6BB"/>
<path d="M293.118 150.596V154.635C293.118 160.396 297.79 165.032 303.515 165.032C309.276 165.032 313.912 160.36 313.912 154.635V150.596H293.118Z" fill="#21252B"/>
<path opacity="0.2" d="M293.118 150.596V154.635C293.118 160.396 297.79 165.032 303.515 165.032C309.276 165.032 313.912 160.36 313.912 154.635V150.596H293.118Z" fill="black"/>
<path d="M244.821 351.368H201.406C200.318 351.368 199.439 350.49 199.439 349.401V339.321C199.439 338.232 200.318 337.354 201.406 337.354H244.821C245.91 337.354 246.788 338.232 246.788 339.321V349.401C246.788 350.49 245.91 351.368 244.821 351.368Z" fill="#21252B"/>
<path d="M242.538 351.368H199.124C198.035 351.368 197.157 350.49 197.157 349.401V339.321C197.157 338.232 198.035 337.354 199.124 337.354H242.538C243.627 337.354 244.505 338.232 244.505 339.321V349.401C244.505 350.49 243.627 351.368 242.538 351.368Z" fill="#3F4249"/>
<path d="M206.325 345.537H204.779L204.498 346.24H203.725L205.201 342.938H205.938L207.413 346.24H206.606L206.325 345.537ZM206.079 344.975L205.552 343.711L205.025 344.975H206.079Z" fill="white"/>
<path d="M207.764 342.972H209.275C209.626 342.972 209.942 343.042 210.223 343.182C210.504 343.323 210.715 343.499 210.855 343.744C210.996 343.99 211.066 344.271 211.066 344.623C211.066 344.939 210.996 345.255 210.855 345.501C210.715 345.747 210.504 345.957 210.223 346.063C209.942 346.203 209.626 346.273 209.275 346.273H207.764V342.972ZM209.204 345.641C209.52 345.641 209.801 345.536 209.977 345.36C210.153 345.185 210.258 344.939 210.258 344.623C210.258 344.306 210.153 344.061 209.977 343.885C209.801 343.709 209.52 343.604 209.204 343.604H208.502V345.641H209.204Z" fill="white"/>
<path d="M211.664 342.972H213.174C213.525 342.972 213.841 343.042 214.122 343.182C214.403 343.323 214.614 343.499 214.755 343.744C214.895 343.99 214.965 344.271 214.965 344.623C214.965 344.939 214.895 345.255 214.755 345.501C214.614 345.747 214.403 345.957 214.122 346.063C213.841 346.203 213.525 346.273 213.174 346.273H211.664V342.972ZM213.104 345.641C213.42 345.641 213.701 345.536 213.876 345.36C214.052 345.185 214.157 344.939 214.157 344.623C214.157 344.306 214.052 344.061 213.876 343.885C213.701 343.709 213.42 343.604 213.104 343.604H212.401V345.641H213.104Z" fill="white"/>
<path d="M217.564 343.57H216.511V342.938H219.391V343.57H218.337V346.24H217.564V343.57Z" fill="white"/>
<path d="M220.409 346.099C220.128 345.959 219.918 345.748 219.777 345.502C219.637 345.256 219.531 344.94 219.531 344.624C219.531 344.308 219.602 344.027 219.777 343.746C219.918 343.5 220.164 343.289 220.409 343.149C220.655 343.008 221.006 342.938 221.323 342.938C221.674 342.938 221.955 343.008 222.236 343.149C222.517 343.289 222.728 343.5 222.868 343.746C223.009 343.992 223.114 344.308 223.114 344.624C223.114 344.94 223.044 345.221 222.868 345.502C222.728 345.748 222.482 345.959 222.236 346.099C221.955 346.24 221.639 346.31 221.323 346.31C220.971 346.31 220.655 346.24 220.409 346.099ZM221.849 345.537C221.99 345.432 222.131 345.326 222.236 345.151C222.342 344.975 222.376 344.8 222.376 344.589C222.376 344.378 222.342 344.202 222.236 344.027C222.131 343.851 222.025 343.746 221.849 343.64C221.709 343.535 221.533 343.5 221.323 343.5C221.112 343.5 220.936 343.535 220.796 343.64C220.655 343.746 220.515 343.851 220.409 344.027C220.304 344.202 220.269 344.378 220.269 344.589C220.269 344.8 220.304 344.975 220.409 345.151C220.515 345.326 220.62 345.432 220.796 345.537C220.936 345.643 221.112 345.678 221.323 345.678C221.533 345.678 221.709 345.607 221.849 345.537Z" fill="white"/>
<path d="M225.678 346.099C225.397 345.959 225.187 345.748 225.046 345.502C224.906 345.256 224.8 344.94 224.8 344.624C224.8 344.308 224.87 343.992 225.046 343.746C225.187 343.5 225.397 343.289 225.678 343.149C225.959 343.008 226.24 342.938 226.591 342.938C226.872 342.938 227.118 342.973 227.364 343.078C227.61 343.184 227.785 343.324 227.961 343.5L227.469 343.957C227.259 343.711 226.978 343.57 226.627 343.57C226.416 343.57 226.24 343.605 226.064 343.711C225.889 343.816 225.783 343.921 225.678 344.097C225.573 344.273 225.537 344.448 225.537 344.659C225.537 344.87 225.573 345.045 225.678 345.221C225.783 345.397 225.889 345.502 226.064 345.607C226.24 345.713 226.416 345.748 226.627 345.748C226.943 345.748 227.223 345.607 227.469 345.362L227.961 345.818C227.821 345.994 227.61 346.169 227.364 346.24C227.118 346.345 226.872 346.38 226.591 346.38C226.275 346.31 225.959 346.24 225.678 346.099Z" fill="white"/>
<path d="M230.596 345.537H229.05L228.769 346.24H227.997L229.472 342.938H230.209L231.685 346.24H230.877L230.596 345.537ZM230.35 344.975L229.823 343.711L229.296 344.975H230.35Z" fill="white"/>
<path d="M234.108 346.24L233.476 345.326H233.441H232.774V346.24H232V342.938H233.441C233.722 342.938 234.003 342.973 234.213 343.078C234.424 343.184 234.6 343.324 234.705 343.5C234.811 343.676 234.881 343.886 234.881 344.132C234.881 344.378 234.811 344.589 234.705 344.764C234.6 344.94 234.424 345.081 234.213 345.186L234.951 346.24H234.108ZM233.932 343.711C233.827 343.605 233.651 343.57 233.405 343.57H232.774V344.729H233.405C233.651 344.729 233.792 344.694 233.932 344.589C234.038 344.483 234.108 344.343 234.108 344.167C234.108 343.957 234.038 343.816 233.932 343.711Z" fill="white"/>
<path d="M236.111 343.57H235.057V342.938H237.937V343.57H236.884V346.24H236.111V343.57Z" fill="white"/>
<path d="M300.389 351.368H256.974C255.885 351.368 255.007 350.49 255.007 349.401V339.321C255.007 338.232 255.885 337.354 256.974 337.354H300.389C301.478 337.354 302.356 338.232 302.356 339.321V349.401C302.356 350.49 301.478 351.368 300.389 351.368Z" fill="#FFBD3A"/>
<path opacity="0.15" d="M300.389 351.368H256.974C255.885 351.368 255.007 350.49 255.007 349.401V339.321C255.007 338.232 255.885 337.354 256.974 337.354H300.389C301.478 337.354 302.356 338.232 302.356 339.321V349.401C302.356 350.49 301.478 351.368 300.389 351.368Z" fill="black"/>
<path d="M298.106 351.368H254.692C253.603 351.368 252.725 350.49 252.725 349.401V339.321C252.725 338.232 253.603 337.354 254.692 337.354H298.106C299.195 337.354 300.073 338.232 300.073 339.321V349.401C300.073 350.49 299.195 351.368 298.106 351.368Z" fill="#FFBD3A"/>
<path d="M267.161 344.833C267.266 344.974 267.337 345.149 267.337 345.36C267.337 345.641 267.231 345.887 266.985 346.028C266.775 346.168 266.423 346.273 266.002 346.273H264.281V342.972H265.897C266.283 342.972 266.599 343.042 266.81 343.218C267.02 343.393 267.126 343.569 267.126 343.85C267.126 344.025 267.091 344.166 267.021 344.271C266.95 344.377 266.845 344.482 266.704 344.552C266.915 344.587 267.056 344.693 267.161 344.833ZM265.053 343.534V344.306H265.826C266.002 344.306 266.142 344.271 266.248 344.201C266.353 344.131 266.388 344.025 266.388 343.92C266.388 343.815 266.353 343.709 266.248 343.639C266.142 343.569 266.002 343.534 265.826 343.534H265.053ZM266.423 345.571C266.529 345.501 266.564 345.395 266.564 345.255C266.564 344.974 266.353 344.833 265.967 344.833H265.089V345.641H265.967C266.142 345.676 266.318 345.641 266.423 345.571Z" fill="white"/>
<path d="M268.285 345.924C268.039 345.678 267.898 345.291 267.898 344.8V342.938H268.671V344.764C268.671 345.362 268.917 345.643 269.409 345.643C269.655 345.643 269.83 345.572 269.971 345.432C270.111 345.291 270.146 345.081 270.146 344.764V342.938H270.884V344.8C270.884 345.291 270.744 345.643 270.498 345.924C270.252 346.169 269.865 346.31 269.409 346.31C268.882 346.31 268.531 346.169 268.285 345.924Z" fill="white"/>
<path d="M273.132 345.079V346.238H272.359V345.079L271.095 342.972H271.903L272.781 344.447L273.659 342.972H274.396L273.132 345.079Z" fill="white"/>
<path d="M279.103 342.972V346.273H278.471L276.82 344.271V346.273H276.083V342.972H276.715L278.366 344.974V342.972H279.103Z" fill="white"/>
<path d="M280.544 346.099C280.263 345.959 280.052 345.748 279.911 345.502C279.771 345.256 279.666 344.94 279.666 344.624C279.666 344.308 279.736 344.027 279.911 343.746C280.052 343.5 280.298 343.289 280.544 343.149C280.79 343.008 281.141 342.938 281.457 342.938C281.808 342.938 282.089 343.008 282.37 343.149C282.651 343.289 282.862 343.5 283.002 343.746C283.143 343.992 283.248 344.308 283.248 344.624C283.248 344.94 283.178 345.221 283.002 345.502C282.862 345.748 282.616 345.959 282.37 346.099C282.089 346.24 281.773 346.31 281.457 346.31C281.141 346.31 280.825 346.24 280.544 346.099ZM282.019 345.537C282.159 345.432 282.3 345.326 282.405 345.151C282.511 344.975 282.546 344.8 282.546 344.589C282.546 344.378 282.511 344.202 282.405 344.027C282.3 343.851 282.195 343.746 282.019 343.64C281.878 343.535 281.703 343.5 281.492 343.5C281.281 343.5 281.106 343.535 280.965 343.64C280.825 343.746 280.684 343.851 280.579 344.027C280.473 344.202 280.438 344.378 280.438 344.589C280.438 344.8 280.473 344.975 280.579 345.151C280.684 345.326 280.79 345.432 280.965 345.537C281.106 345.643 281.281 345.678 281.492 345.678C281.703 345.678 281.843 345.607 282.019 345.537Z" fill="white"/>
<path d="M288.728 342.972L287.639 346.273H286.831L286.093 344.025L285.356 346.273H284.548L283.459 342.972H284.267L285.005 345.29L285.777 342.972H286.48L287.218 345.29L287.99 342.972H288.728Z" fill="white"/>
<path opacity="0.3" d="M313.877 129.095C313.877 129.201 313.912 129.341 313.912 129.447C313.912 129.306 313.877 129.201 313.877 129.095Z" fill="black"/>
<path opacity="0.3" d="M304.991 121.055H197.473C193.925 121.055 190.588 123.092 188.973 125.692C190.062 124.954 191.572 125.059 193.363 125.059H307.379C310.646 125.059 313.526 125.902 313.877 129.064C313.421 124.568 309.627 121.055 304.991 121.055Z" fill="black"/>
<path d="M312.156 170.124L308.573 168.754L303.866 168.965C303.48 169 303.234 169.316 303.374 169.667C303.48 169.913 303.726 170.089 304.007 170.089L308.397 170.299L310.821 171.775L308.397 170.299L304.498 170.475C304.182 170.51 303.972 170.756 304.042 171.037C304.112 171.283 304.358 171.423 304.639 171.423L308.503 171.599L312.015 173.707L308.503 171.599L305.622 172.021C305.412 172.056 305.306 172.266 305.377 172.442C305.447 172.583 305.622 172.688 305.798 172.688H309.03L312.402 174.444L312.156 170.124Z" fill="#FC9D9D"/>
<path d="M312.156 170.124L308.573 168.754L303.866 168.965C303.48 169 303.234 169.316 303.374 169.667C303.48 169.913 303.726 170.089 304.007 170.089L308.397 170.299L310.821 171.775L308.397 170.299L304.498 170.475C304.182 170.51 303.972 170.756 304.042 171.037C304.112 171.283 304.358 171.423 304.639 171.423L308.503 171.599L312.015 173.707L308.503 171.599L305.622 172.021C305.412 172.056 305.306 172.266 305.377 172.442C305.447 172.583 305.622 172.688 305.798 172.688H309.03L312.402 174.444L312.156 170.124Z" fill="#FC9D9D"/>
<path opacity="0.15" d="M312.156 170.124L308.573 168.754L303.866 168.965C303.48 169 303.234 169.316 303.374 169.667C303.48 169.913 303.726 170.089 304.007 170.089L308.397 170.299L310.821 171.775L308.397 170.299L304.498 170.475C304.182 170.51 303.972 170.756 304.042 171.037C304.112 171.283 304.358 171.423 304.639 171.423L308.503 171.599L312.015 173.707L308.503 171.599L305.622 172.021C305.412 172.056 305.306 172.266 305.377 172.442C305.447 172.583 305.622 172.688 305.798 172.688H309.03L312.402 174.444L312.156 170.124Z" fill="black"/>
<path d="M312.191 168.86L316.863 173.286C317.108 173.532 317.46 173.707 317.811 173.848L328.489 176.939L325.644 183.261L317.389 179.468C317.108 179.327 316.792 179.257 316.511 179.257L316.02 179.222C314.017 179.257 312.226 178.59 310.856 177.29H310.821C310.645 177.114 310.4 176.974 310.154 176.868C309.24 176.552 306.992 175.744 306.992 175.744C306.852 175.709 306.782 175.569 306.817 175.428C306.957 174.866 307.554 174.445 308.292 174.515L309.943 174.691C310.821 174.761 311.488 174.094 311.313 173.356L310.364 170.124C310.329 169.914 310.154 169.738 309.978 169.633L304.604 166.752C304.358 166.647 304.253 166.366 304.358 166.19C304.463 165.909 304.815 165.804 305.096 165.909C306.501 166.436 310.821 168.157 311.805 168.579C311.98 168.684 312.086 168.755 312.191 168.86Z" fill="#FC9D9D"/>
<path opacity="0.15" d="M327.997 176.76L325.925 179.64C325.187 180.589 324.274 181.045 323.15 180.589L318.022 178.446C317.6 178.235 317.144 178.165 316.722 178.2C315.528 178.306 312.964 178.341 310.786 177.182C310.821 177.217 310.856 177.217 310.856 177.217H310.892C312.261 178.551 314.053 179.184 316.055 179.149L316.547 179.184C316.863 179.184 317.179 179.254 317.425 179.394L325.644 183.223V183.153L327.997 176.76Z" fill="black"/>
<path d="M388.869 351.824C388.482 353.299 388.377 353.861 388.447 355.336L388.412 365.206C388.482 366.927 388.939 368.613 389.817 370.089L390.028 370.44C390.52 371.318 391.468 371.845 392.487 371.845H395.297C396.596 371.845 397.72 370.967 398.036 369.702C398.388 368.227 398.458 366.717 398.177 365.241L395.788 354.669C395.613 353.756 395.402 352.772 394.945 351.824H388.869Z" fill="#FFBD3A"/>
<path d="M350.618 328.679L350.02 347.085C350.02 348.806 349.564 350.632 348.896 351.581L340.677 365.912L342.574 368.511L350.02 364.788L356.659 352.81C356.624 350.773 356.835 349.543 357.221 346.804L360.488 326.501L350.618 328.679Z" fill="#FC9D9D"/>
<path opacity="0.15" d="M350.056 353.37C350.828 352.246 351.777 349.612 351.987 348.382L352.901 341.814C352.971 341.322 353.357 340.936 353.849 340.866L358.38 340.233L358.45 339.25H350.266L350.02 347.083C349.985 348.347 349.739 350.349 348.896 351.579L340.677 365.91L341.836 367.842L350.056 353.37Z" fill="black"/>
<path d="M336.779 368.3L340.677 365.912C343.523 366.368 346.368 365.315 348.194 363.102L356.659 352.845C358.205 356.112 358.732 359.765 358.205 363.348L356.975 371.883H355.992L355.711 363.137C355.676 362.505 354.903 362.224 354.482 362.715L349.318 369.038C347.843 370.829 345.63 371.883 343.312 371.883H335.268C334.636 371.883 334.214 371.251 334.46 370.654C334.952 369.565 335.76 368.757 336.779 368.3Z" fill="#FFBD3A"/>
<path d="M388.483 347.398C388.904 350.946 389.08 354.493 389.045 358.076L388.974 362.326C389.045 364.188 390.59 365.663 392.452 365.663H393.014C395.121 365.663 396.737 363.801 396.456 361.694L395.472 356.636C394.981 354.072 394.805 351.437 394.946 348.838L395.894 331.662L387.042 331.803L388.483 347.398Z" fill="#FC9D9D"/>
<path d="M355.324 212.205L354.376 223.796L353.252 236.476C352.655 243.255 352.268 250.034 352.093 256.814L349.88 339.252H358.802L375.416 230.47C375.521 229.732 376.153 229.205 376.891 229.205C377.664 229.205 378.331 229.802 378.401 230.575L387.077 339.252L395.894 339.182L400.249 260.783C401.162 244.063 399.898 227.309 396.491 210.905L395.999 208.587L355.324 212.205Z" fill="#3F4249"/>
<path opacity="0.15" d="M387.709 339.284C387.709 339.284 388.763 350.313 388.833 351.788V351.823C388.974 353.896 389.009 355.968 388.974 358.076L388.904 362.326C388.974 364.152 390.414 365.592 392.205 365.663C390.59 364.398 390.73 362.361 390.66 360.815L390.379 342.129C390.379 341.532 390.8 341.005 391.398 340.899L395.332 340.197L395.367 339.319L387.709 339.284Z" fill="black"/>
<path opacity="0.2" d="M376.926 229.24C377.313 229.24 377.664 229.38 377.945 229.626C378.226 229.872 378.402 230.223 378.437 230.61L387.113 339.286L390.274 339.251L384.935 236.827C384.689 232.577 381.176 229.24 376.926 229.24Z" fill="black"/>
<path d="M397.896 172.478C397.896 172.478 398.844 167.771 399.968 162.749C400.741 159.166 398.493 155.653 394.91 154.88L387.007 153.159L384.127 152.562L367.794 152.703L365.897 153.23L358.556 155.267C356.308 155.969 354.692 157.339 353.639 159.166L353.603 159.271C353.287 159.798 344.857 181.4 344.857 181.4L327.927 176.834L325.539 183.332L345.911 192.745C348.3 193.834 351.11 192.851 352.269 190.532L355.606 183.894L357.011 188.249C359.364 196.363 355.992 207.182 354.587 211.081C354.341 211.783 354.868 212.521 355.606 212.521H369.761L382.687 212.486H396.245C397.053 212.486 397.65 211.783 397.51 210.975C397.475 210.764 395.402 204.091 394.84 196.117C394.629 193.272 394.91 190.392 395.472 187.582L397.896 172.478Z" fill="#FFBD3A"/>
<path opacity="0.6" d="M385.391 156.318L387.288 153.613L387.534 153.262L387.007 153.157L385.883 152.911L379.736 153.649L366.881 152.946L365.932 153.227L365.405 153.368L367.337 156.248C369.41 159.233 372.781 161.13 376.434 161.13C376.645 161.13 376.856 161.13 377.067 161.095C380.439 160.884 383.495 159.093 385.391 156.318Z" fill="black"/>
<path opacity="0.2" d="M355.324 212.345L354.376 223.796L353.673 231.699C352.795 241.675 352.233 251.65 351.952 261.661L349.88 339.287H353.428L359.012 231.172L359.996 212.415H355.64L355.465 212.38L355.324 212.345Z" fill="black"/>
<path d="M399.407 211.644L395.121 211.609C395.051 211.609 394.946 211.609 394.875 211.644L391.012 212.416C390.344 212.557 389.747 212.943 389.361 213.54L387.394 216.596C387.253 216.807 387.288 217.088 387.499 217.264C387.71 217.439 388.026 217.404 388.202 217.193L390.45 214.559L393.26 213.786L390.66 214.981L388.588 218.247C388.448 218.493 388.483 218.809 388.658 218.985C388.904 219.231 389.291 219.231 389.536 218.985C390.344 218.142 391.995 216.421 391.995 216.421L393.927 215.613L392.206 216.877L390.204 219.371C390.028 219.617 390.063 219.968 390.274 220.144C390.485 220.32 390.801 220.32 391.012 220.109L393.4 217.931L395.578 216.877L392.908 219.266C392.698 219.477 392.663 219.793 392.838 220.003C393.014 220.214 393.26 220.249 393.506 220.144L397.123 218.177L399.758 218.317C401.76 218.423 403.551 217.123 404.043 215.191L404.113 214.945L419.077 193.73L411.173 188.145L399.407 211.644Z" fill="#FC9D9D"/>
<path d="M398.493 156.987L422.554 181.504C424.415 183.401 424.661 186.386 423.081 188.564L410.049 206.618L404.148 201.877L412.122 186.386L395.262 171.774L398.493 156.987Z" fill="#FFBD3A"/>
<path opacity="0.15" d="M399.863 172.654L399.09 168.439C399.055 168.193 398.704 168.193 398.633 168.439L397.72 173.953L412.086 186.423L412.754 185.229C413.035 184.737 412.929 184.105 412.508 183.718L399.863 172.654Z" fill="black"/>
<path opacity="0.15" d="M404.324 202.053L407.556 206.198C407.766 206.444 407.766 206.83 407.591 207.076L402.884 214.241C402.884 214.241 401.338 218.316 397.51 218.21L399.793 218.316C401.795 218.421 403.586 217.122 404.078 215.19L404.148 214.944L410.014 206.619L404.324 202.053Z" fill="black"/>
<path opacity="0.6" d="M404.113 201.912L404.851 200.542L410.963 205.354L410.049 206.654L404.113 201.912Z" fill="black"/>
<path d="M385.075 124.567C388.18 124.567 390.695 122.051 390.695 118.947C390.695 115.843 388.18 113.327 385.075 113.327C381.97 113.327 379.455 115.843 379.455 118.947C379.455 122.051 381.97 124.567 385.075 124.567Z" fill="#21252B"/>
<path d="M388.237 123.583C386.902 124.496 385.181 124.847 383.495 124.356C380.509 123.477 378.788 120.386 379.631 117.401C379.701 117.19 379.772 117.014 379.842 116.839C382.406 117.155 386.797 119.403 388.237 123.583Z" fill="#FFBD3A"/>
<path d="M382.301 142.271C382.055 148.312 380.228 151.684 383.6 151.825C388.974 152.071 393.576 147.329 393.822 141.287C394.068 135.246 389.923 130.153 384.549 129.907C383.144 135.105 382.547 136.229 382.301 142.271Z" fill="#21252B"/>
<path d="M379.94 142.581C380.4 137.343 376.417 132.716 371.046 132.245C365.672 131.774 360.944 135.638 360.488 140.875C360.028 146.112 364.011 150.739 369.381 151.21C374.756 151.681 379.483 147.818 379.94 142.581Z" fill="#21252B"/>
<path d="M382.547 138.162L382.898 150.42C382.933 151.404 383.6 152.282 384.549 152.528L385.954 152.914L384.303 155.303C382.617 157.726 379.947 159.307 376.997 159.483C376.821 159.483 376.61 159.483 376.435 159.518C373.238 159.553 370.288 157.902 368.461 155.268L366.881 152.984L368.461 152.563C369.34 152.317 370.007 151.544 370.112 150.631L371.728 136.089L382.547 138.162Z" fill="#FC9D9D"/>
<path d="M374.011 147.223L374.573 147.258C378.753 147.434 382.266 144.202 382.441 140.023L382.898 129.415C382.968 128.01 381.879 126.851 380.474 126.78L370.604 126.359C368.813 126.289 367.267 127.694 367.197 129.485L366.775 139.32C366.6 143.5 369.831 147.048 374.011 147.223Z" fill="#FC9D9D"/>
<path d="M374.538 136.717C374.984 136.717 375.346 136.355 375.346 135.909C375.346 135.463 374.984 135.101 374.538 135.101C374.092 135.101 373.73 135.463 373.73 135.909C373.73 136.355 374.092 136.717 374.538 136.717Z" fill="#21252B"/>
<path d="M374.186 136.368C374.285 136.368 374.362 136.289 374.362 136.192C374.362 136.096 374.285 136.017 374.186 136.017C374.088 136.017 374.011 136.096 374.011 136.192C374.011 136.289 374.088 136.368 374.186 136.368Z" fill="white"/>
<path d="M368.216 136.717C368.662 136.717 369.023 136.355 369.023 135.909C369.023 135.463 368.662 135.101 368.216 135.101C367.77 135.101 367.408 135.463 367.408 135.909C367.408 136.355 367.77 136.717 368.216 136.717Z" fill="#21252B"/>
<path d="M367.794 136.331C367.892 136.331 367.969 136.253 367.969 136.156C367.969 136.059 367.892 135.98 367.794 135.98C367.695 135.98 367.618 136.059 367.618 136.156C367.618 136.253 367.695 136.331 367.794 136.331Z" fill="white"/>
<g opacity="0.3">
<path opacity="0.3" d="M371.411 140.409L372.5 140.479C372.64 140.479 372.746 140.374 372.746 140.268C372.746 140.128 372.64 140.022 372.535 140.022L371.446 139.952C371.165 139.917 370.954 139.706 370.989 139.425C371.024 139.144 371.235 138.933 371.516 138.969C371.657 138.969 371.762 138.863 371.762 138.758C371.762 138.617 371.657 138.512 371.551 138.512C371.025 138.477 370.533 138.863 370.498 139.425C370.463 139.917 370.884 140.374 371.411 140.409Z" fill="black"/>
</g>
<path d="M363.965 134.402C365.16 133.559 364.738 131.978 364.738 131.978C364.527 131.311 364.387 130.573 364.352 129.766C364.317 127.237 365.686 126.253 366.389 125.937C366.635 125.832 366.81 125.551 366.846 125.27C367.372 117.402 378.156 115.54 383.811 120.212C387.218 123.057 387.991 126.218 387.71 129.204C387.71 129.204 387.534 130.503 388.728 131.171L387.253 131.768C386.656 133.945 385.743 135.948 385.181 137.493C384.935 138.16 383.706 135.386 383.144 135.069C383.073 135.034 382.546 135.772 382.195 136.264C381.984 136.58 381.493 136.51 381.387 136.158C380.966 134.824 380.79 133.419 380.86 132.049L380.931 130.784C378.191 130.398 377.137 127.763 377.137 127.763C374.433 130.784 369.866 130.468 368.005 130.187C367.583 130.117 367.162 130.433 367.162 130.89L366.951 135.631C366.951 135.631 366.248 134.929 365.581 133.805L364.317 134.683L363.965 134.402Z" fill="#21252B"/>
<path d="M381.914 140.44C381.914 140.44 385.497 141.037 386.551 137.525C387.604 134.048 383.249 132.994 382.336 136.541L381.528 140.405L381.914 140.44Z" fill="#FC9D9D"/>
<path opacity="0.3" d="M385.602 135.561C385.251 135.28 384.9 135.139 384.548 135.174C384.197 135.209 383.881 135.42 383.635 135.806C383.354 136.193 383.178 136.649 383.108 137.141L383.073 137.528C383.038 137.809 383.53 137.949 383.565 137.598C383.635 137.176 383.635 137.176 383.635 137.176C383.635 137.071 383.776 136.404 384.057 136.052C384.267 135.806 384.443 135.631 384.654 135.631C384.864 135.596 385.11 135.701 385.356 135.912C385.462 135.982 385.602 135.982 385.672 135.877C385.707 135.771 385.707 135.631 385.602 135.561Z" fill="black"/>
<path d="M364.703 136.299C364.562 138.09 365.932 139.671 367.724 139.812C369.515 139.952 371.096 138.582 371.236 136.791C371.271 136.159 371.166 135.561 370.885 135.07C371.587 134.859 372.22 134.999 372.501 135.105C372.36 135.421 372.255 135.807 372.22 136.159C372.079 137.95 373.449 139.531 375.24 139.671C377.032 139.812 378.612 138.442 378.753 136.65C378.893 134.859 377.523 133.278 375.732 133.138C374.468 133.032 373.308 133.7 372.676 134.718C372.325 134.578 371.552 134.367 370.639 134.718C370.112 133.911 369.199 133.384 368.18 133.313C366.424 133.138 364.843 134.473 364.703 136.299ZM372.676 136.194C372.782 134.613 374.187 133.454 375.767 133.559C377.348 133.665 378.507 135.07 378.402 136.65C378.296 138.231 376.891 139.39 375.311 139.285C373.73 139.144 372.536 137.739 372.676 136.194ZM365.124 136.334C365.23 134.754 366.635 133.594 368.215 133.7C369.796 133.805 370.955 135.21 370.85 136.791C370.744 138.371 369.339 139.531 367.759 139.425C366.178 139.285 364.984 137.88 365.124 136.334Z" fill="white"/>
<path d="M382.968 139.95C383.354 139.95 383.67 139.635 383.67 139.247C383.67 138.859 383.354 138.545 382.968 138.545C382.581 138.545 382.265 138.859 382.265 139.247C382.265 139.635 382.581 139.95 382.968 139.95Z" fill="#FFBD3A"/>
<path opacity="0.15" d="M382.687 139.846C383.108 139.881 383.495 139.565 383.53 139.143C383.53 139.003 383.495 138.862 383.424 138.722C383.6 138.862 383.705 139.073 383.67 139.319C383.635 139.705 383.284 140.021 382.898 139.986C382.757 139.986 382.617 139.916 382.511 139.811C382.581 139.846 382.617 139.846 382.687 139.846Z" fill="black"/>
<path d="M368.812 131.626C372.009 131.731 374.187 130.713 375.451 129.87C376.821 128.921 377.453 127.973 377.488 127.938C377.559 127.832 377.523 127.727 377.418 127.657C377.313 127.586 377.207 127.622 377.137 127.727C377.102 127.762 374.678 131.415 368.848 131.204C368.742 131.204 368.637 131.275 368.637 131.415C368.602 131.52 368.707 131.591 368.812 131.626Z" fill="#21252B"/>
<path opacity="0.15" d="M382.617 140.48H381.458L382.687 142.939L382.617 140.48Z" fill="black"/>
<path opacity="0.15" d="M370.288 145.955C371.412 146.623 372.747 146.974 374.187 147.009C374.503 147.009 374.784 147.009 375.1 147.009C375.205 147.009 375.346 147.009 375.451 146.974C375.486 146.974 375.486 146.974 375.521 146.974C375.697 146.939 375.873 146.939 376.048 146.904C376.119 146.904 376.189 146.869 376.259 146.869C377.453 146.658 378.332 146.236 378.929 145.885C379.034 145.815 379.174 145.85 379.245 145.955C379.315 146.061 379.28 146.201 379.174 146.272C378.437 146.693 377.278 147.22 375.697 147.396C374.889 147.993 373.484 148.765 371.728 148.73C371.166 148.73 370.569 148.66 370.042 148.555L370.288 145.955Z" fill="black"/>
<path d="M370.78 141.705C370.674 141.705 370.604 141.81 370.639 141.916C371.061 142.724 371.833 143.251 372.747 143.251C373.66 143.251 374.433 142.724 374.854 141.916C374.889 141.81 374.854 141.705 374.714 141.705H370.78Z" fill="white"/>
<path opacity="0.6" d="M327.997 176.76L325.609 183.293L327.084 183.961L329.543 177.182L327.997 176.76Z" fill="black"/>
<path opacity="0.15" d="M356.87 169.457L356.097 172.232L355.114 173.883C353.393 176.763 352.795 180.205 353.463 183.507L350.266 190.181C349.459 191.761 347.14 192.956 345.138 192.288L345.981 192.675C348.37 193.764 351.18 192.78 352.339 190.462L355.676 183.823L355.395 182.91C354.517 180.03 354.868 176.904 356.343 174.234L357.186 172.759V169.492C357.221 169.317 356.94 169.281 356.87 169.457Z" fill="black"/>
<path d="M341.661 190.673L342.118 190.884L341.661 190.673Z" fill="black"/>
<path d="M362.209 157.83C362.539 157.83 362.806 157.562 362.806 157.233C362.806 156.903 362.539 156.635 362.209 156.635C361.879 156.635 361.612 156.903 361.612 157.233C361.612 157.562 361.879 157.83 362.209 157.83Z" fill="white"/>
<path d="M351.18 171.106C351.51 171.106 351.777 170.838 351.777 170.508C351.777 170.179 351.51 169.911 351.18 169.911C350.85 169.911 350.583 170.179 350.583 170.508C350.583 170.838 350.85 171.106 351.18 171.106Z" fill="white"/>
<path d="M347.421 190.811C347.751 190.811 348.018 190.544 348.018 190.214C348.018 189.884 347.751 189.617 347.421 189.617C347.092 189.617 346.824 189.884 346.824 190.214C346.824 190.544 347.092 190.811 347.421 190.811Z" fill="white"/>
<path d="M331.299 180.626C331.629 180.626 331.896 180.359 331.896 180.029C331.896 179.699 331.629 179.432 331.299 179.432C330.969 179.432 330.702 179.699 330.702 180.029C330.702 180.359 330.969 180.626 331.299 180.626Z" fill="white"/>
<path d="M394.102 163.518C394.433 163.518 394.7 163.251 394.7 162.921C394.7 162.591 394.433 162.324 394.102 162.324C393.772 162.324 393.505 162.591 393.505 162.921C393.505 163.251 393.772 163.518 394.102 163.518Z" fill="white"/>
<path d="M410.26 172.794C410.59 172.794 410.857 172.526 410.857 172.196C410.857 171.867 410.59 171.599 410.26 171.599C409.93 171.599 409.663 171.867 409.663 172.196C409.663 172.526 409.93 172.794 410.26 172.794Z" fill="white"/>
<path d="M393.856 180.626C394.187 180.626 394.454 180.359 394.454 180.029C394.454 179.699 394.187 179.432 393.856 179.432C393.526 179.432 393.259 179.699 393.259 180.029C393.259 180.359 393.526 180.626 393.856 180.626Z" fill="white"/>
<path d="M381.457 180.8C381.788 180.8 382.055 180.532 382.055 180.203C382.055 179.873 381.788 179.605 381.457 179.605C381.127 179.605 380.86 179.873 380.86 180.203C380.86 180.532 381.127 180.8 381.457 180.8Z" fill="white"/>
<path d="M419.146 191.373C419.477 191.373 419.744 191.106 419.744 190.776C419.744 190.446 419.477 190.179 419.146 190.179C418.816 190.179 418.549 190.446 418.549 190.776C418.549 191.106 418.816 191.373 419.146 191.373Z" fill="white"/>
<path d="M372.325 169.352C372.655 169.352 372.922 169.085 372.922 168.755C372.922 168.425 372.655 168.158 372.325 168.158C371.995 168.158 371.728 168.425 371.728 168.755C371.728 169.085 371.995 169.352 372.325 169.352Z" fill="white"/>
<path d="M382.511 195.309C382.841 195.309 383.108 195.042 383.108 194.712C383.108 194.382 382.841 194.115 382.511 194.115C382.181 194.115 381.914 194.382 381.914 194.712C381.914 195.042 382.181 195.309 382.511 195.309Z" fill="white"/>
<path d="M367.337 188.036C367.667 188.036 367.934 187.769 367.934 187.439C367.934 187.109 367.667 186.842 367.337 186.842C367.007 186.842 366.74 187.109 366.74 187.439C366.74 187.769 367.007 188.036 367.337 188.036Z" fill="white"/>
<path d="M359.996 175.811C360.326 175.811 360.593 175.544 360.593 175.214C360.593 174.884 360.326 174.617 359.996 174.617C359.666 174.617 359.399 174.884 359.399 175.214C359.399 175.544 359.666 175.811 359.996 175.811Z" fill="white"/>
<path d="M390.695 209.217C391.025 209.217 391.292 208.949 391.292 208.62C391.292 208.29 391.025 208.022 390.695 208.022C390.365 208.022 390.098 208.29 390.098 208.62C390.098 208.949 390.365 209.217 390.695 209.217Z" fill="white"/>
<path d="M363.965 207.253C364.295 207.253 364.562 206.986 364.562 206.656C364.562 206.326 364.295 206.059 363.965 206.059C363.635 206.059 363.368 206.326 363.368 206.656C363.368 206.986 363.635 207.253 363.965 207.253Z" fill="white"/>
<path opacity="0.6" d="M378.156 205.109L379.104 206.76C379.174 206.9 379.139 207.076 378.999 207.146C378.858 207.216 378.683 207.181 378.612 207.041L377.664 205.39C377.594 205.249 377.629 205.074 377.769 205.004C377.91 204.898 378.086 204.968 378.156 205.109Z" fill="black"/>
<path opacity="0.6" d="M358.521 159.093L359.469 160.744C359.54 160.885 359.505 161.06 359.364 161.131C359.224 161.201 359.048 161.166 358.978 161.025L358.029 159.374C357.959 159.234 357.994 159.058 358.135 158.988C358.275 158.918 358.451 158.953 358.521 159.093Z" fill="black"/>
<path opacity="0.6" d="M369.269 179.15H371.201C371.341 179.15 371.482 179.291 371.482 179.431C371.482 179.572 371.341 179.712 371.201 179.712H369.269C369.128 179.712 368.988 179.572 368.988 179.431C368.953 179.291 369.093 179.15 369.269 179.15Z" fill="black"/>
<path opacity="0.6" d="M385.145 171.212L386.269 169.666C386.375 169.526 386.55 169.526 386.656 169.596C386.796 169.701 386.796 169.877 386.726 169.982L385.602 171.528C385.497 171.668 385.321 171.668 385.215 171.598C385.075 171.493 385.04 171.317 385.145 171.212Z" fill="black"/>
<path opacity="0.6" d="M389.185 155.404L391.082 155.58C391.222 155.58 391.363 155.72 391.327 155.896C391.327 156.036 391.187 156.177 391.011 156.142L389.115 155.966C388.974 155.966 388.834 155.826 388.869 155.65C388.904 155.474 389.044 155.369 389.185 155.404Z" fill="black"/>
<path opacity="0.6" d="M363.192 198.435L364.316 196.889C364.421 196.749 364.597 196.749 364.703 196.819C364.843 196.924 364.843 197.1 364.773 197.205L363.649 198.751C363.543 198.891 363.368 198.891 363.262 198.821C363.122 198.751 363.087 198.54 363.192 198.435Z" fill="black"/>
<path opacity="0.6" d="M417.496 183.505L418.62 181.959C418.725 181.819 418.901 181.819 419.006 181.889C419.147 181.994 419.147 182.17 419.076 182.275L417.952 183.821C417.847 183.961 417.671 183.961 417.566 183.891C417.426 183.786 417.39 183.61 417.496 183.505Z" fill="black"/>
<path opacity="0.6" d="M402.568 164.151L404.219 165.1C404.359 165.17 404.394 165.346 404.324 165.486C404.254 165.627 404.078 165.662 403.938 165.591L402.287 164.643C402.146 164.573 402.111 164.397 402.182 164.257C402.252 164.116 402.427 164.081 402.568 164.151Z" fill="black"/>
<path opacity="0.6" d="M408.469 197.872L410.12 198.82C410.26 198.891 410.295 199.066 410.225 199.207C410.155 199.347 409.979 199.382 409.839 199.312L408.188 198.364C408.047 198.294 408.012 198.118 408.082 197.977C408.153 197.837 408.328 197.767 408.469 197.872Z" fill="black"/>
<path opacity="0.6" d="M350.512 177.396L352.163 178.344C352.304 178.415 352.339 178.59 352.269 178.731C352.198 178.871 352.023 178.906 351.882 178.836L350.231 177.888C350.091 177.817 350.056 177.642 350.126 177.501C350.196 177.361 350.372 177.291 350.512 177.396Z" fill="black"/>
<path opacity="0.6" d="M335.549 185.086L337.446 185.227C337.586 185.227 337.727 185.367 337.727 185.543C337.727 185.683 337.586 185.824 337.411 185.824L335.514 185.683C335.373 185.683 335.233 185.543 335.233 185.367C335.233 185.192 335.373 185.051 335.549 185.086Z" fill="black"/>
<path opacity="0.6" d="M391.574 195.063L393.471 195.414C393.611 195.449 393.717 195.59 393.717 195.73C393.681 195.871 393.541 195.976 393.4 195.976L391.504 195.625C391.363 195.59 391.258 195.449 391.258 195.309C391.293 195.133 391.433 195.028 391.574 195.063Z" fill="black"/>
<g opacity="0.15">
<path opacity="0.15" d="M422.554 181.54L421.254 180.205C422.695 182.488 422.659 185.474 421.079 187.722L408.68 205.53L410.05 206.654L422.94 188.846C424.837 186.141 424.31 183.366 422.554 181.54Z" fill="black"/>
</g>
<path fill-rule="evenodd" clip-rule="evenodd" d="M237.621 220.738C238.815 220.738 239.798 219.298 239.798 217.507C239.798 215.715 238.815 214.275 237.621 214.275C236.426 214.275 235.443 215.715 235.443 217.507C235.443 219.298 236.426 220.738 237.621 220.738Z" fill="#868A91"/>
<path opacity="0.2" d="M198.913 307.744L182.861 340.762L182.791 302.405L198.913 307.744Z" fill="black"/>
<path d="M198.211 308.693L136.25 370.653C134.634 372.269 132 372.269 130.384 370.653L91.9223 332.227C90.3065 330.611 90.3065 327.977 91.9223 326.361L153.883 264.4C155.499 262.785 158.133 262.785 159.749 264.4L198.211 302.827C199.861 304.443 199.861 307.077 198.211 308.693Z" fill="#21252B"/>
<path d="M159.924 275.287L147.525 287.686C147.033 288.178 146.19 288.178 145.698 287.686L143.521 285.509C143.029 285.017 143.029 284.174 143.521 283.682L155.92 271.283C156.412 270.791 157.255 270.791 157.746 271.283L159.924 273.461C160.451 273.952 160.451 274.76 159.924 275.287Z" fill="#FFBD3A"/>
<path d="M119.448 325.781L108.769 336.461L111.227 338.92L121.907 328.24L119.448 325.781Z" fill="#FFBD3A"/>
<path d="M113.067 326.569L106.78 332.857C106.323 333.313 106.323 334.016 106.78 334.472L108.431 336.123L115.526 329.028L113.067 326.569Z" fill="#FFBD3A"/>
<path d="M115.843 323.759L113.419 326.183L115.878 328.641L119.109 325.41L117.458 323.759C117.002 323.337 116.299 323.337 115.843 323.759Z" fill="#FFBD3A"/>
<path d="M113.243 340.969C113.699 341.426 114.402 341.426 114.858 340.969L117.563 338.264L115.104 335.806L111.627 339.283L113.243 340.969Z" fill="#FFBD3A"/>
<path d="M117.879 337.914L123.921 331.873C124.377 331.416 124.377 330.713 123.921 330.257L122.27 328.606L115.42 335.455L117.879 337.914Z" fill="#FFBD3A"/>
<path d="M134.458 338.302L122.972 349.788C122.727 350.034 122.305 350.034 122.059 349.788L119.636 347.364C119.39 347.118 119.39 346.697 119.636 346.451L131.121 334.965C131.367 334.719 131.789 334.719 132.035 334.965L134.458 337.389C134.739 337.635 134.739 338.021 134.458 338.302Z" fill="white"/>
<path d="M148.755 324.007L137.269 335.493C137.023 335.738 136.601 335.738 136.356 335.493L133.932 333.069C133.686 332.823 133.686 332.402 133.932 332.156L145.418 320.67C145.664 320.424 146.085 320.424 146.331 320.67L148.755 323.093C149.001 323.339 149.001 323.761 148.755 324.007Z" fill="white"/>
<path d="M163.05 309.709L151.564 321.195C151.318 321.441 150.897 321.441 150.651 321.195L148.227 318.771C147.981 318.525 147.981 318.104 148.227 317.858L159.713 306.372C159.959 306.126 160.381 306.126 160.626 306.372L163.05 308.796C163.296 309.041 163.296 309.463 163.05 309.709Z" fill="white"/>
<path d="M177.346 295.416L165.86 306.902C165.614 307.148 165.193 307.148 164.947 306.902L162.523 304.478C162.277 304.232 162.277 303.811 162.523 303.565L174.009 292.079C174.255 291.833 174.677 291.833 174.922 292.079L177.346 294.503C177.592 294.748 177.592 295.17 177.346 295.416Z" fill="white"/>
<path d="M152.653 337.53L131.648 358.535C131.262 358.921 130.665 358.921 130.279 358.535C129.892 358.149 129.892 357.552 130.279 357.165L151.283 336.16C151.67 335.774 152.267 335.774 152.653 336.16C153.04 336.547 153.04 337.179 152.653 337.53Z" fill="white"/>
<path opacity="0.7" d="M159.924 275.287L147.525 287.686C147.033 288.178 146.19 288.178 145.698 287.686L143.521 285.509C143.029 285.017 143.029 284.174 143.521 283.682L155.92 271.283C156.412 270.791 157.255 270.791 157.746 271.283L159.924 273.461C160.451 273.952 160.451 274.76 159.924 275.287Z" fill="white"/>
<path opacity="0.7" d="M152.653 337.53L131.648 358.535C131.262 358.921 130.665 358.921 130.279 358.535C129.892 358.149 129.892 357.552 130.279 357.165L151.283 336.16C151.67 335.774 152.267 335.774 152.653 336.16C153.04 336.547 153.04 337.179 152.653 337.53Z" fill="white"/>
<path d="M188.164 310.871C190.237 308.799 190.237 305.462 188.164 303.39C186.092 301.317 182.755 301.317 180.683 303.39C178.61 305.462 178.61 308.799 180.683 310.871C182.755 312.944 186.092 312.944 188.164 310.871Z" fill="#FFBD3A"/>
<path d="M183.142 315.894C185.214 313.822 185.214 310.485 183.142 308.413C181.069 306.34 177.733 306.34 175.66 308.413C173.588 310.485 173.588 313.822 175.66 315.894C177.733 317.967 181.069 317.967 183.142 315.894Z" fill="white"/>
<circle cx="248.987" cy="217.727" r="24.8987" fill="#E7F7F4"/>
<path fill-rule="evenodd" clip-rule="evenodd" d="M248.994 233.877C253.277 233.877 257.385 232.175 260.414 229.147C263.443 226.118 265.144 222.01 265.144 217.726C265.144 213.443 263.443 209.335 260.414 206.306C257.385 203.277 253.277 201.576 248.994 201.576C244.71 201.576 240.602 203.277 237.574 206.306C234.545 209.335 232.843 213.443 232.843 217.726C232.843 222.01 234.545 226.118 237.574 229.147C240.602 232.175 244.71 233.877 248.994 233.877ZM256.478 215.116C256.845 214.735 257.049 214.225 257.044 213.696C257.04 213.167 256.827 212.66 256.453 212.286C256.079 211.912 255.572 211.699 255.043 211.695C254.514 211.69 254.004 211.894 253.623 212.262L246.975 218.909L244.365 216.299C243.984 215.931 243.474 215.728 242.945 215.733C242.415 215.737 241.909 215.949 241.535 216.324C241.16 216.698 240.948 217.204 240.943 217.734C240.939 218.263 241.142 218.773 241.51 219.154L245.548 223.191C245.926 223.57 246.44 223.782 246.975 223.782C247.51 223.782 248.024 223.57 248.402 223.191L256.478 215.116Z" fill="#3ECF4C"/>
</svg>
