<svg width="562" height="423" viewBox="0 0 562 423" fill="none" xmlns="http://www.w3.org/2000/svg">
<path d="M103.293 371.668L82.3194 180.96C82.0416 178.434 82.265 175.878 82.9766 173.438C83.6886 170.998 84.8747 168.723 86.4677 166.742L166.844 66.7831C168.906 64.2197 171.587 62.2249 174.636 60.9882C177.684 59.7514 180.998 59.3134 184.263 59.716L411.992 87.816C415.498 88.2484 418.817 89.633 421.588 91.8195C424.363 94.006 426.485 96.9112 427.721 100.219L474.476 225.127C475.586 228.096 475.948 231.292 475.53 234.435L457.349 371.668H103.293Z" fill="#F4F4F4"/>
<path d="M169.935 222.613C178.665 222.613 185.741 215.536 185.741 206.807C185.741 198.077 178.665 191 169.935 191C161.206 191 154.129 198.077 154.129 206.807C154.129 215.536 161.206 222.613 169.935 222.613Z" fill="white"/>
<path d="M162.758 202.309C162.758 201.793 162.911 201.288 163.198 200.859C163.485 200.429 163.892 200.095 164.369 199.898C164.846 199.7 165.371 199.648 165.877 199.749C166.384 199.85 166.849 200.098 167.214 200.463C167.579 200.828 167.827 201.293 167.928 201.8C168.028 202.306 167.977 202.83 167.779 203.307C167.582 203.784 167.247 204.192 166.818 204.479C166.389 204.765 165.884 204.918 165.368 204.918C164.676 204.918 164.012 204.643 163.523 204.154C163.033 203.665 162.758 203.001 162.758 202.309Z" fill="#FFBD3A"/>
<path d="M164.244 211.995L173.886 199.701C173.916 199.663 173.954 199.631 173.996 199.607C174.039 199.582 174.086 199.567 174.135 199.561C174.183 199.555 174.232 199.559 174.28 199.572C174.327 199.586 174.371 199.608 174.409 199.638L175.881 200.78C175.958 200.842 176.008 200.932 176.02 201.03C176.032 201.129 176.005 201.228 175.944 201.307L166.302 213.6C166.241 213.678 166.152 213.728 166.054 213.741C165.956 213.754 165.857 213.727 165.779 213.667L164.311 212.522C164.272 212.492 164.239 212.455 164.214 212.412C164.189 212.369 164.173 212.322 164.167 212.272C164.161 212.224 164.164 212.174 164.178 212.126C164.191 212.078 164.214 212.034 164.244 211.995Z" fill="#FFBD3A"/>
<path d="M174.501 214.051C173.985 214.051 173.48 213.897 173.051 213.611C172.622 213.324 172.287 212.916 172.09 212.439C171.893 211.962 171.841 211.437 171.942 210.93C172.043 210.424 172.292 209.959 172.657 209.594C173.023 209.229 173.488 208.981 173.994 208.881C174.501 208.78 175.026 208.833 175.502 209.031C175.979 209.229 176.387 209.564 176.673 209.994C176.959 210.423 177.112 210.928 177.111 211.444C177.11 212.136 176.835 212.799 176.345 213.288C175.856 213.776 175.193 214.051 174.501 214.051Z" fill="#FFBD3A"/>
<g opacity="0.4">
<path opacity="0.4" d="M162.76 202.308C162.76 201.792 162.913 201.287 163.2 200.858C163.487 200.429 163.894 200.094 164.371 199.897C164.848 199.699 165.373 199.648 165.879 199.748C166.386 199.849 166.851 200.098 167.216 200.463C167.58 200.828 167.829 201.293 167.93 201.799C168.03 202.305 167.979 202.83 167.781 203.307C167.584 203.784 167.249 204.191 166.82 204.478C166.391 204.765 165.886 204.918 165.37 204.918C164.678 204.918 164.014 204.643 163.525 204.153C163.035 203.664 162.76 203 162.76 202.308Z" fill="white"/>
<path opacity="0.4" d="M164.246 211.992L173.888 199.698C173.918 199.659 173.956 199.627 173.998 199.603C174.041 199.579 174.088 199.564 174.137 199.558C174.185 199.552 174.234 199.556 174.282 199.569C174.329 199.582 174.373 199.604 174.411 199.635L175.883 200.776C175.96 200.838 176.01 200.928 176.022 201.027C176.034 201.125 176.007 201.225 175.946 201.303L166.304 213.597C166.243 213.675 166.154 213.725 166.056 213.738C165.958 213.75 165.859 213.723 165.781 213.664L164.313 212.519C164.273 212.488 164.24 212.451 164.216 212.408C164.191 212.366 164.175 212.318 164.169 212.269C164.163 212.22 164.166 212.17 164.18 212.122C164.193 212.075 164.216 212.03 164.246 211.992Z" fill="white"/>
<path opacity="0.4" d="M174.502 214.045C173.986 214.045 173.481 213.892 173.052 213.605C172.623 213.318 172.288 212.91 172.091 212.433C171.894 211.956 171.842 211.431 171.943 210.925C172.044 210.418 172.293 209.953 172.658 209.588C173.024 209.223 173.489 208.975 173.995 208.875C174.502 208.775 175.027 208.827 175.503 209.025C175.98 209.223 176.388 209.558 176.674 209.988C176.96 210.417 177.113 210.922 177.112 211.438C177.111 212.13 176.836 212.793 176.346 213.282C175.857 213.77 175.194 214.045 174.502 214.045Z" fill="white"/>
</g>
<path d="M155.998 157.997C164.727 157.997 171.804 150.921 171.804 142.191C171.804 133.461 164.727 126.385 155.998 126.385C147.268 126.385 140.191 133.461 140.191 142.191C140.191 150.921 147.268 157.997 155.998 157.997Z" fill="white"/>
<path d="M164.484 136.789C164.451 136.746 164.408 136.712 164.359 136.688C164.31 136.664 164.257 136.652 164.203 136.652H150.655L150.283 134.798C150.267 134.717 150.223 134.644 150.159 134.592C150.094 134.54 150.014 134.512 149.931 134.513H147.792C147.699 134.513 147.61 134.55 147.544 134.616C147.478 134.682 147.441 134.771 147.441 134.864C147.441 134.958 147.478 135.047 147.544 135.113C147.61 135.179 147.699 135.216 147.792 135.216H149.633L151.389 143.909C151.503 144.476 151.811 144.986 152.259 145.352C152.708 145.718 153.269 145.917 153.848 145.915H162.078C162.171 145.915 162.26 145.878 162.326 145.812C162.392 145.746 162.429 145.657 162.429 145.564C162.429 145.47 162.392 145.381 162.326 145.315C162.26 145.25 162.171 145.212 162.078 145.212H153.848C153.564 145.212 153.284 145.145 153.031 145.015C152.779 144.884 152.561 144.696 152.397 144.464L162.84 143.059C162.911 143.05 162.977 143.02 163.031 142.972C163.084 142.925 163.121 142.862 163.138 142.792L164.564 137.084C164.574 137.032 164.572 136.979 164.558 136.928C164.544 136.877 164.518 136.829 164.484 136.789Z" fill="#FFBD3A"/>
<path d="M160.924 150.172C161.897 150.015 162.558 149.098 162.4 148.125C162.242 147.152 161.326 146.492 160.353 146.65C159.38 146.808 158.719 147.724 158.877 148.697C159.035 149.67 159.952 150.33 160.924 150.172Z" fill="#FFBD3A"/>
<path d="M153.5 150.206C154.485 150.206 155.285 149.407 155.285 148.422C155.285 147.436 154.485 146.637 153.5 146.637C152.515 146.637 151.716 147.436 151.716 148.422C151.716 149.407 152.515 150.206 153.5 150.206Z" fill="#FFBD3A"/>
<g opacity="0.4">
<path opacity="0.4" d="M164.484 136.792C164.451 136.749 164.408 136.714 164.36 136.691C164.311 136.667 164.257 136.654 164.203 136.655H150.655L150.283 134.8C150.267 134.719 150.223 134.646 150.159 134.594C150.095 134.542 150.014 134.514 149.932 134.516H147.793C147.7 134.516 147.61 134.553 147.544 134.619C147.478 134.685 147.441 134.774 147.441 134.867C147.441 134.96 147.478 135.05 147.544 135.116C147.61 135.181 147.7 135.218 147.793 135.218H149.633L151.389 143.912C151.504 144.479 151.812 144.989 152.26 145.355C152.708 145.72 153.27 145.919 153.848 145.917H162.078C162.171 145.917 162.26 145.88 162.326 145.815C162.392 145.749 162.429 145.659 162.429 145.566C162.429 145.473 162.392 145.384 162.326 145.318C162.26 145.252 162.171 145.215 162.078 145.215H153.848C153.564 145.215 153.284 145.147 153.032 145.017C152.78 144.887 152.562 144.698 152.398 144.467L162.84 143.062C162.911 143.053 162.978 143.023 163.031 142.975C163.085 142.927 163.122 142.865 163.139 142.795L164.565 137.087C164.574 137.035 164.572 136.981 164.558 136.93C164.544 136.879 164.519 136.832 164.484 136.792Z" fill="white"/>
<path opacity="0.4" d="M160.925 150.177C161.898 150.02 162.559 149.103 162.401 148.13C162.243 147.157 161.327 146.497 160.354 146.655C159.381 146.813 158.72 147.729 158.878 148.702C159.036 149.675 159.953 150.335 160.925 150.177Z" fill="white"/>
<path opacity="0.4" d="M153.501 150.211C154.486 150.211 155.285 149.412 155.285 148.426C155.285 147.441 154.486 146.642 153.501 146.642C152.515 146.642 151.716 147.441 151.716 148.426C151.716 149.412 152.515 150.211 153.501 150.211Z" fill="white"/>
</g>
<path d="M464.609 372.371H95.6177C95.5454 372.371 95.4755 372.343 95.4242 372.29C95.3729 372.237 95.3438 372.171 95.3438 372.097C95.3438 372.023 95.3729 371.953 95.4242 371.904C95.4755 371.851 95.5454 371.823 95.6177 371.823H464.609C464.683 371.823 464.753 371.851 464.803 371.904C464.855 371.953 464.883 372.023 464.883 372.097C464.883 372.171 464.855 372.237 464.803 372.29C464.753 372.343 464.683 372.371 464.609 372.371Z" fill="#B2B6BB"/>
<path d="M241.902 109.89C250.632 109.89 257.708 102.814 257.708 94.0841C257.708 85.3545 250.632 78.2778 241.902 78.2778C233.173 78.2778 226.096 85.3545 226.096 94.0841C226.096 102.814 233.173 109.89 241.902 109.89Z" fill="white"/>
<path d="M237.42 91.7252H238.952L241.983 87.1906L242.233 84.6546C242.241 84.5632 242.271 84.4754 242.32 84.3978C242.369 84.3205 242.436 84.2563 242.515 84.2099C242.594 84.1635 242.682 84.1365 242.774 84.1312C242.865 84.1263 242.957 84.1431 243.04 84.1804C243.704 84.493 244.379 85.3746 244.382 87.8685C244.382 90.6785 244.407 90.8506 244.407 90.8506L249.124 90.8893C249.401 90.8963 249.665 91.0094 249.861 91.2057C250.057 91.4017 250.171 91.6655 250.178 91.943C250.213 93.7203 250.287 97.3347 250.325 99.3193C250.359 99.9722 250.173 100.617 249.796 101.152C249.42 101.687 248.875 102.08 248.249 102.27C248.073 102.316 247.891 102.341 247.708 102.344C246.455 102.344 240.051 101.325 240.051 101.325H237.403L237.42 91.7252Z" fill="#FFBD3A"/>
<path d="M233.006 91.7202L233.982 101.496H236.603V91.7202H233.006Z" fill="#FFBD3A"/>
<g opacity="0.4">
<path opacity="0.4" d="M237.42 91.7243H238.951L241.983 87.1896L242.232 84.6536C242.24 84.5623 242.27 84.4745 242.319 84.3968C242.368 84.3196 242.435 84.2553 242.514 84.2089C242.593 84.1625 242.682 84.1355 242.773 84.1302C242.865 84.1253 242.956 84.1422 243.04 84.1794C243.704 84.492 244.378 85.3737 244.382 87.8675C244.382 90.6775 244.406 90.8496 244.406 90.8496L249.124 90.8883C249.401 90.8953 249.664 91.0084 249.861 91.2048C250.057 91.4008 250.17 91.6645 250.177 91.942C250.212 93.7194 250.286 97.3337 250.325 99.3183C250.358 99.9713 250.172 100.616 249.796 101.151C249.419 101.686 248.875 102.079 248.249 102.269C248.072 102.315 247.891 102.34 247.708 102.343C246.454 102.343 240.051 101.324 240.051 101.324H237.402L237.42 91.7243Z" fill="white"/>
<path opacity="0.4" d="M233.004 91.7192L233.981 101.495H236.601V91.7192H233.004Z" fill="white"/>
</g>
<path d="M291.222 115.153H313.811C315.577 115.153 317.326 115.501 318.958 116.178C320.589 116.854 322.072 117.845 323.321 119.094C324.569 120.343 325.56 121.826 326.235 123.459C326.91 125.091 327.257 126.84 327.256 128.606V358.391C327.256 361.956 325.84 365.377 323.318 367.899C320.797 370.421 317.376 371.837 313.811 371.837H291.222C290.571 371.837 289.927 371.71 289.326 371.461C288.725 371.211 288.178 370.846 287.719 370.386C287.259 369.926 286.894 369.381 286.645 368.781C286.396 368.18 286.269 367.534 286.269 366.884V120.106C286.269 119.455 286.396 118.811 286.645 118.21C286.894 117.609 287.259 117.063 287.719 116.603C288.178 116.143 288.725 115.778 289.326 115.53C289.927 115.281 290.571 115.153 291.222 115.153Z" fill="#21252B"/>
<path d="M305.149 115.153H197.326C189.337 115.153 182.861 121.629 182.861 129.618V357.369C182.861 365.356 189.337 371.833 197.326 371.833H305.149C313.137 371.833 319.613 365.356 319.613 357.369V129.618C319.613 121.629 313.137 115.153 305.149 115.153Z" fill="#61656D"/>
<path d="M304.973 121.055H277.062C276.141 121.055 275.248 121.376 274.538 121.962C273.828 122.549 273.344 123.365 273.17 124.269C272.999 125.174 272.516 125.991 271.806 126.579C271.096 127.166 270.203 127.487 269.282 127.487H233.195C232.273 127.487 231.38 127.166 230.67 126.578C229.959 125.991 229.476 125.174 229.303 124.269C229.13 123.365 228.647 122.549 227.937 121.962C227.227 121.376 226.335 121.055 225.414 121.055H197.501C196.325 121.055 195.16 121.287 194.074 121.737C192.988 122.187 192.001 122.847 191.17 123.679C190.338 124.511 189.679 125.498 189.23 126.585C188.781 127.672 188.55 128.836 188.551 130.012V356.948C188.551 358.124 188.782 359.287 189.232 360.372C189.682 361.458 190.341 362.445 191.172 363.277C192.003 364.106 192.99 364.766 194.076 365.216C195.161 365.666 196.325 365.898 197.501 365.898H304.983C306.159 365.898 307.323 365.666 308.409 365.216C309.495 364.766 310.482 364.11 311.314 363.277C312.145 362.445 312.805 361.461 313.255 360.372C313.705 359.287 313.937 358.124 313.937 356.948V130.012C313.937 128.835 313.706 127.669 313.256 126.582C312.805 125.494 312.145 124.506 311.313 123.674C310.48 122.842 309.491 122.182 308.404 121.733C307.315 121.284 306.15 121.053 304.973 121.055Z" fill="#FFBD3A"/>
<path opacity="0.7" d="M304.973 121.055H277.062C276.141 121.055 275.248 121.376 274.538 121.962C273.828 122.549 273.344 123.365 273.17 124.269C272.999 125.174 272.516 125.991 271.806 126.579C271.096 127.166 270.203 127.487 269.282 127.487H233.195C232.273 127.487 231.38 127.166 230.67 126.578C229.959 125.991 229.476 125.174 229.303 124.269C229.13 123.365 228.647 122.549 227.937 121.962C227.227 121.376 226.335 121.055 225.414 121.055H197.501C196.325 121.055 195.16 121.287 194.074 121.737C192.988 122.187 192.001 122.847 191.17 123.679C190.338 124.511 189.679 125.498 189.23 126.585C188.781 127.672 188.55 128.836 188.551 130.012V356.948C188.551 358.124 188.782 359.287 189.232 360.372C189.682 361.458 190.341 362.445 191.172 363.277C192.003 364.106 192.99 364.766 194.076 365.216C195.161 365.666 196.325 365.898 197.501 365.898H304.983C306.159 365.898 307.323 365.666 308.409 365.216C309.495 364.766 310.482 364.11 311.314 363.277C312.145 362.445 312.805 361.461 313.255 360.372C313.705 359.287 313.937 358.124 313.937 356.948V130.012C313.937 128.835 313.706 127.669 313.256 126.582C312.805 125.494 312.145 124.506 311.313 123.674C310.48 122.842 309.491 122.182 308.404 121.733C307.315 121.284 306.15 121.053 304.973 121.055Z" fill="white"/>
<path opacity="0.5" d="M265.636 121.055H236.837C236.275 121.055 235.818 121.51 235.818 122.072C235.818 122.634 236.275 123.089 236.837 123.089H265.636C266.199 123.089 266.655 122.634 266.655 122.072C266.655 121.51 266.199 121.055 265.636 121.055Z" fill="black"/>
<path d="M304.984 121.055L293.126 150.599H270.263L282.054 121.055H304.984Z" fill="#FFBD3A"/>
<path d="M282.124 121.055L270.262 150.599H247.403L259.194 121.055H282.124Z" fill="#3F4249"/>
<path d="M259.262 121.055L247.403 150.599H224.541L236.332 121.055H259.262Z" fill="#FFBD3A"/>
<path d="M236.402 121.055L224.54 150.599H201.677L213.469 121.055H236.402Z" fill="#3F4249"/>
<path d="M213.539 121.055L201.681 150.599H178.748L188.021 127.504C188.785 125.6 190.101 123.968 191.801 122.819C193.5 121.67 195.505 121.056 197.557 121.055H213.539Z" fill="#FFBD3A"/>
<path d="M304.984 121.055L293.126 150.599H270.263L282.054 121.055H304.984Z" fill="#FFBD3A"/>
<path d="M259.262 121.055L247.403 150.599H224.541L236.332 121.055H259.262Z" fill="#FFBD3A"/>
<path d="M213.539 121.055L201.681 150.599H178.748L188.021 127.504C188.785 125.6 190.101 123.968 191.801 122.819C193.5 121.67 195.505 121.056 197.557 121.055H213.539Z" fill="#FFBD3A"/>
<path d="M293.125 150.597H313.926V130.01C313.926 127.639 312.983 125.366 311.307 123.689C309.631 122.013 307.357 121.071 304.986 121.071L293.125 150.597Z" fill="#21252B"/>
<path d="M178.748 150.596H201.681V153.581C201.681 155.087 201.384 156.579 200.807 157.969C200.231 159.361 199.386 160.625 198.321 161.69C197.256 162.754 195.992 163.599 194.601 164.175C193.209 164.75 191.718 165.047 190.212 165.046C187.172 165.046 184.256 163.839 182.106 161.688C179.955 159.538 178.748 156.622 178.748 153.581V150.596Z" fill="#FFBD3A"/>
<path d="M201.617 150.596H224.547V153.581C224.547 156.622 223.339 159.538 221.189 161.688C219.039 163.839 216.123 165.046 213.082 165.046C210.041 165.046 207.125 163.839 204.975 161.688C202.825 159.538 201.617 156.622 201.617 153.581V150.596Z" fill="#21252B"/>
<path d="M224.469 150.596H247.402V153.581C247.402 155.087 247.106 156.579 246.529 157.969C245.953 159.361 245.108 160.625 244.043 161.69C242.978 162.754 241.714 163.599 240.322 164.175C238.931 164.75 237.44 165.047 235.934 165.046C232.893 165.046 229.977 163.839 227.827 161.688C225.677 159.538 224.469 156.622 224.469 153.581V150.596Z" fill="#FFBD3A"/>
<path d="M247.333 150.596H270.262V153.581C270.262 156.622 269.055 159.538 266.904 161.688C264.754 163.839 261.838 165.046 258.797 165.046C255.757 165.046 252.841 163.839 250.69 161.688C248.54 159.538 247.333 156.622 247.333 153.581V150.596Z" fill="#21252B"/>
<path d="M270.193 150.596H293.126V153.581C293.126 156.622 291.918 159.538 289.768 161.688C287.618 163.839 284.702 165.046 281.661 165.046C280.155 165.047 278.664 164.75 277.273 164.175C275.881 163.599 274.617 162.754 273.552 161.69C272.487 160.625 271.642 159.361 271.066 157.969C270.49 156.579 270.193 155.087 270.193 153.581V150.596Z" fill="#FFBD3A"/>
<path opacity="0.3" d="M178.748 150.596H201.681V153.581C201.681 155.087 201.384 156.579 200.807 157.969C200.231 159.361 199.386 160.625 198.321 161.69C197.256 162.754 195.992 163.599 194.601 164.175C193.209 164.75 191.718 165.047 190.212 165.046C187.172 165.046 184.256 163.839 182.106 161.688C179.955 159.538 178.748 156.622 178.748 153.581V150.596Z" fill="black"/>
<path opacity="0.3" d="M224.469 150.596H247.402V153.581C247.402 155.087 247.106 156.579 246.529 157.969C245.953 159.361 245.108 160.625 244.043 161.69C242.978 162.754 241.714 163.599 240.322 164.175C238.931 164.75 237.44 165.047 235.934 165.046C232.893 165.046 229.977 163.839 227.827 161.688C225.677 159.538 224.469 156.622 224.469 153.581V150.596Z" fill="black"/>
<path opacity="0.3" d="M270.193 150.596H293.126V153.581C293.126 156.622 291.918 159.538 289.768 161.688C287.618 163.839 284.702 165.046 281.661 165.046C280.155 165.047 278.664 164.75 277.273 164.175C275.881 163.599 274.617 162.754 273.552 161.69C272.487 160.625 271.642 159.361 271.066 157.969C270.49 156.579 270.193 155.087 270.193 153.581V150.596Z" fill="black"/>
<path d="M280.969 181.9H224.459C219.901 181.9 216.205 185.596 216.205 190.154V246.663C216.205 251.222 219.901 254.918 224.459 254.918H280.969C285.527 254.918 289.223 251.222 289.223 246.663V190.154C289.223 185.596 285.527 181.9 280.969 181.9Z" fill="#FFBD3A"/>
<g opacity="0.5">
<path opacity="0.5" d="M280.97 181.901H224.461C219.902 181.901 216.207 185.597 216.207 190.156V246.665C216.207 251.224 219.902 254.919 224.461 254.919H280.97C285.529 254.919 289.224 251.224 289.224 246.665V190.156C289.224 185.597 285.529 181.901 280.97 181.901Z" fill="white"/>
</g>
<path d="M278.181 182.154H221.672C217.113 182.154 213.418 185.85 213.418 190.409V246.918C213.418 251.477 217.113 255.172 221.672 255.172H278.181C282.74 255.172 286.436 251.477 286.436 246.918V190.409C286.436 185.85 282.74 182.154 278.181 182.154Z" fill="white"/>
<path d="M296.346 286.661H206.134C204.749 286.661 203.626 287.784 203.626 289.169C203.626 290.554 204.749 291.677 206.134 291.677H296.346C297.731 291.677 298.854 290.554 298.854 289.169C298.854 287.784 297.731 286.661 296.346 286.661Z" fill="white"/>
<path d="M296.346 271.77H206.134C204.749 271.77 203.626 272.892 203.626 274.277C203.626 275.662 204.749 276.785 206.134 276.785H296.346C297.731 276.785 298.854 275.662 298.854 274.277C298.854 272.892 297.731 271.77 296.346 271.77Z" fill="white"/>
<path d="M280.192 301.549H222.282C220.897 301.549 219.774 302.672 219.774 304.057C219.774 305.442 220.897 306.565 222.282 306.565H280.192C281.578 306.565 282.7 305.442 282.7 304.057C282.7 302.672 281.578 301.549 280.192 301.549Z" fill="white"/>
<path d="M411.099 253.619H370.685V275.678H411.099V253.619Z" fill="#B2B6BB"/>
<path d="M411.1 253.619H402.494V275.678H411.1V253.619Z" fill="#61656D"/>
<path d="M420.853 260L416.41 238.135" stroke="#868A91" stroke-width="0.129963" stroke-miterlimit="10"/>
<path d="M422.094 230.753L421.465 259.187" stroke="#868A91" stroke-width="0.129963" stroke-miterlimit="10"/>
<path d="M428.564 236.033L421.778 244.54" stroke="#868A91" stroke-width="0.129963" stroke-miterlimit="10"/>
<path d="M424.229 265.453L423.558 264.438C422.888 263.42 422.526 262.227 422.526 261.006V258.59H419.919V261.024C419.919 262.244 419.561 263.437 418.89 264.456L418.216 265.471C417.52 266.525 417.053 267.711 416.843 268.956C416.632 270.201 416.681 271.476 416.99 272.7L417.749 275.696H424.7L425.459 272.7C425.771 271.473 425.824 270.194 425.61 268.946C425.399 267.698 424.928 266.509 424.229 265.453Z" fill="#868A91"/>
<path d="M424.23 265.453L423.559 264.438C422.888 263.42 422.53 262.226 422.53 261.006V258.59H421.778V261.024C421.796 262.213 422.091 263.381 422.639 264.435L423.408 265.896C425.319 270.199 421.715 275.696 421.715 275.696H424.7L425.459 272.7C425.772 271.473 425.824 270.194 425.61 268.946C425.399 267.698 424.929 266.509 424.23 265.453Z" fill="#61656D"/>
<path d="M419.119 251.454L427.187 244.77" stroke="#868A91" stroke-width="0.129963" stroke-miterlimit="10"/>
<path d="M413.048 249.962L420.182 256.692" stroke="#868A91" stroke-width="0.129963" stroke-miterlimit="10"/>
<path d="M424.532 241.105L425.649 236.188C425.74 235.786 425.93 235.415 426.204 235.108C426.478 234.801 426.825 234.568 427.215 234.432C427.602 234.296 428.02 234.261 428.424 234.331C428.831 234.4 429.214 234.572 429.534 234.829C429.857 235.085 430.106 235.419 430.264 235.799C430.422 236.18 430.478 236.594 430.433 237.002C430.387 237.411 430.236 237.801 429.997 238.136C429.758 238.471 429.439 238.74 429.066 238.917L424.532 241.105Z" fill="#FFBD3A"/>
<path opacity="0.3" d="M424.532 241.105L425.649 236.188C425.74 235.786 425.93 235.415 426.204 235.108C426.478 234.801 426.825 234.568 427.215 234.432C427.602 234.296 428.02 234.261 428.424 234.331C428.831 234.4 429.214 234.572 429.534 234.829C429.857 235.085 430.106 235.419 430.264 235.799C430.422 236.18 430.478 236.594 430.433 237.002C430.387 237.411 430.236 237.801 429.997 238.136C429.758 238.471 429.439 238.74 429.066 238.917L424.532 241.105Z" fill="white"/>
<path d="M430.447 236.787C430.443 237.241 430.31 237.683 430.067 238.065C429.825 238.447 429.477 238.753 429.07 238.948L424.532 241.122L429.534 234.852C429.825 235.083 430.057 235.378 430.215 235.713C430.373 236.049 430.454 236.417 430.447 236.787Z" fill="#FFBD3A"/>
<path d="M421.957 238.921L418.75 232.286C418.486 231.744 418.367 231.144 418.402 230.543C418.434 229.941 418.62 229.358 418.939 228.848C419.259 228.338 419.702 227.917 420.228 227.625C420.755 227.333 421.349 227.18 421.95 227.179C422.554 227.179 423.144 227.331 423.671 227.622C424.198 227.914 424.644 228.334 424.963 228.844C425.286 229.354 425.469 229.937 425.504 230.539C425.539 231.14 425.42 231.74 425.157 232.283L421.957 238.921Z" fill="#FFBD3A"/>
<path opacity="0.3" d="M421.957 238.921L418.75 232.286C418.486 231.744 418.367 231.144 418.402 230.543C418.434 229.941 418.62 229.358 418.939 228.848C419.259 228.338 419.702 227.917 420.228 227.625C420.755 227.333 421.349 227.18 421.95 227.179C422.554 227.179 423.144 227.331 423.671 227.622C424.198 227.914 424.644 228.334 424.963 228.844C425.286 229.354 425.469 229.937 425.504 230.539C425.539 231.14 425.42 231.74 425.157 232.283L421.957 238.921Z" fill="white"/>
<path opacity="0.3" d="M422.108 227.189L421.957 238.921L425.156 232.283C425.413 231.753 425.532 231.167 425.504 230.579C425.476 229.992 425.304 229.42 425.002 228.915C424.7 228.41 424.278 227.988 423.772 227.687C423.267 227.386 422.694 227.215 422.108 227.189Z" fill="white"/>
<path d="M418.402 247.776L413.723 242.216C413.34 241.76 413.08 241.216 412.968 240.633C412.852 240.049 412.887 239.447 413.07 238.881C413.252 238.315 413.575 237.805 414.008 237.398C414.44 236.991 414.97 236.7 415.546 236.553C416.122 236.408 416.723 236.411 417.299 236.562C417.871 236.713 418.398 237.007 418.827 237.416C419.259 237.825 419.578 238.337 419.754 238.903C419.933 239.469 419.965 240.071 419.849 240.653L418.402 247.776Z" fill="#FFBD3A"/>
<path opacity="0.3" d="M419.849 240.654C419.968 240.072 419.937 239.47 419.757 238.903C419.578 238.337 419.259 237.825 418.83 237.415C418.402 237.005 417.875 236.711 417.299 236.56C416.726 236.409 416.122 236.406 415.546 236.551L418.409 247.739L419.849 240.654Z" fill="white"/>
<path d="M417.735 254.389L415.627 249.071C415.452 248.637 415.171 248.254 414.809 247.958C414.447 247.662 414.015 247.462 413.555 247.378C413.095 247.293 412.621 247.327 412.178 247.476C411.735 247.625 411.335 247.884 411.019 248.228C410.703 248.574 410.481 248.994 410.373 249.449C410.264 249.905 410.271 250.38 410.394 250.832C410.52 251.283 410.755 251.695 411.082 252.03C411.412 252.364 411.816 252.611 412.266 252.746L417.735 254.389Z" fill="#FFBD3A"/>
<path opacity="0.3" d="M417.735 254.389L415.627 249.071C415.452 248.637 415.171 248.254 414.809 247.958C414.447 247.662 414.015 247.462 413.555 247.378C413.095 247.293 412.621 247.327 412.178 247.476C411.735 247.625 411.335 247.884 411.019 248.228C410.703 248.574 410.481 248.994 410.373 249.449C410.264 249.905 410.271 250.38 410.394 250.832C410.52 251.283 410.755 251.695 411.082 252.03C411.412 252.364 411.816 252.611 412.266 252.746L417.735 254.389Z" fill="white"/>
<path opacity="0.3" d="M411.104 248.134L417.732 254.387L415.624 249.069C415.456 248.644 415.182 248.268 414.834 247.974C414.483 247.68 414.065 247.477 413.615 247.384C413.169 247.292 412.702 247.312 412.266 247.443C411.827 247.574 411.427 247.811 411.104 248.134Z" fill="white"/>
<path d="M421.282 249.741L423.597 244.121C423.787 243.662 424.089 243.259 424.475 242.95C424.865 242.64 425.325 242.434 425.813 242.351C426.302 242.268 426.804 242.31 427.271 242.474C427.742 242.638 428.16 242.918 428.49 243.288C428.82 243.658 429.052 244.106 429.161 244.589C429.27 245.072 429.256 245.576 429.119 246.052C428.982 246.528 428.725 246.962 428.374 247.312C428.023 247.662 427.591 247.918 427.113 248.055L421.282 249.741Z" fill="#FFBD3A"/>
<path opacity="0.3" d="M421.282 249.741L423.597 244.121C423.787 243.662 424.089 243.259 424.475 242.95C424.865 242.64 425.325 242.434 425.813 242.351C426.302 242.268 426.804 242.31 427.271 242.474C427.742 242.638 428.16 242.918 428.49 243.288C428.82 243.658 429.052 244.106 429.161 244.589C429.27 245.072 429.256 245.576 429.119 246.052C428.982 246.528 428.725 246.962 428.374 247.312C428.023 247.662 427.591 247.918 427.113 248.055L421.282 249.741Z" fill="white"/>
<path d="M421.507 256.546L432.537 250.508" stroke="#868A91" stroke-width="0.129963" stroke-miterlimit="10"/>
<path d="M423.312 255.554L427.306 250.085C427.633 249.638 428.068 249.28 428.571 249.047C429.073 248.814 429.628 248.711 430.179 248.75C430.734 248.789 431.268 248.968 431.732 249.27C432.196 249.572 432.578 249.986 432.838 250.475C433.098 250.964 433.232 251.511 433.221 252.065C433.214 252.618 433.063 253.161 432.789 253.641C432.512 254.122 432.118 254.524 431.648 254.811C431.173 255.099 430.636 255.261 430.081 255.284L423.312 255.554Z" fill="#FFBD3A"/>
<path opacity="0.3" d="M423.312 255.554L427.306 250.085C427.633 249.638 428.068 249.28 428.571 249.047C429.073 248.814 429.628 248.711 430.179 248.75C430.734 248.789 431.268 248.968 431.732 249.27C432.196 249.572 432.578 249.986 432.838 250.475C433.098 250.964 433.232 251.511 433.221 252.065C433.214 252.618 433.063 253.161 432.789 253.641C432.512 254.122 432.118 254.524 431.648 254.811C431.173 255.099 430.636 255.261 430.081 255.284L423.312 255.554Z" fill="white"/>
<path d="M432.937 253.353C432.691 253.911 432.291 254.387 431.785 254.729C431.282 255.07 430.689 255.263 430.081 255.285L423.309 255.556L432.835 250.487C433.07 250.925 433.204 251.411 433.221 251.908C433.239 252.405 433.141 252.9 432.937 253.353Z" fill="#FFBD3A"/>
<path opacity="0.3" d="M423.608 244.136L421.293 249.756L428.494 243.311C428.163 242.942 427.745 242.663 427.278 242.5C426.811 242.336 426.312 242.294 425.824 242.376C425.336 242.459 424.876 242.663 424.489 242.971C424.103 243.279 423.797 243.68 423.608 244.136Z" fill="white"/>
<path d="M428.002 278.059H451.567C451.88 278.059 452.178 277.935 452.4 277.715C452.621 277.494 452.747 277.195 452.747 276.882C452.747 276.727 452.716 276.574 452.656 276.431C452.6 276.288 452.512 276.157 452.403 276.048C452.291 275.938 452.161 275.851 452.02 275.792C451.876 275.733 451.722 275.702 451.567 275.702H428.002V278.059Z" fill="#B2B6BB"/>
<path d="M448.511 276.886H424.731V350.135H448.511V276.886Z" fill="#B2B6BB"/>
<path d="M425.459 276.886H345.697V350.135H425.459V276.886Z" fill="#DADDDF"/>
<path d="M421.774 344.548H349.101V287.087L421.774 287.154V344.548ZM349.631 344.022H421.247V287.688H349.631V344.022Z" fill="#B2B6BB"/>
<path d="M428.026 275.702H342.999C342.349 275.702 341.822 276.229 341.822 276.879V276.882C341.822 277.532 342.349 278.059 342.999 278.059H428.026C428.676 278.059 429.203 277.532 429.203 276.882V276.879C429.203 276.229 428.676 275.702 428.026 275.702Z" fill="#DADDDF"/>
<path d="M349.104 315.99H421.774V315.46H349.104V315.99Z" fill="#B2B6BB"/>
<path d="M382.613 296.32C383.621 296.32 384.436 295.504 384.436 294.497C384.436 293.49 383.621 292.674 382.613 292.674C381.605 292.674 380.79 293.49 380.79 294.497C380.79 295.504 381.605 296.32 382.613 296.32Z" fill="#B2B6BB"/>
<path opacity="0.15" d="M383.274 294.495C383.274 294.115 383.154 293.743 382.929 293.434C382.708 293.125 382.395 292.893 382.034 292.771C382.22 292.709 382.417 292.677 382.613 292.676C382.859 292.665 383.105 292.704 383.333 292.791C383.565 292.878 383.776 293.01 383.955 293.18C384.131 293.35 384.275 293.555 384.37 293.781C384.468 294.008 384.517 294.251 384.517 294.497C384.517 294.743 384.468 294.987 384.37 295.213C384.275 295.44 384.131 295.644 383.955 295.814C383.776 295.985 383.565 296.117 383.333 296.204C383.105 296.29 382.859 296.329 382.613 296.318C382.417 296.318 382.22 296.286 382.034 296.224C382.395 296.101 382.708 295.869 382.929 295.559C383.154 295.249 383.274 294.877 383.274 294.495Z" fill="black"/>
<path d="M382.613 324.589C383.621 324.589 384.436 323.773 384.436 322.766C384.436 321.759 383.621 320.943 382.613 320.943C381.605 320.943 380.79 321.759 380.79 322.766C380.79 323.773 381.605 324.589 382.613 324.589Z" fill="#B2B6BB"/>
<path opacity="0.15" d="M383.274 322.762C383.274 322.381 383.154 322.009 382.929 321.699C382.708 321.389 382.395 321.157 382.034 321.034C382.22 320.972 382.417 320.94 382.613 320.939C382.859 320.928 383.105 320.968 383.333 321.054C383.565 321.141 383.776 321.273 383.955 321.444C384.131 321.614 384.275 321.818 384.37 322.045C384.468 322.271 384.517 322.514 384.517 322.761C384.517 323.007 384.468 323.25 384.37 323.477C384.275 323.703 384.131 323.907 383.955 324.078C383.776 324.248 383.565 324.38 383.333 324.467C383.105 324.554 382.859 324.593 382.613 324.582C382.417 324.581 382.22 324.549 382.034 324.487C382.395 324.365 382.708 324.133 382.929 323.824C383.154 323.515 383.274 323.143 383.274 322.762Z" fill="black"/>
<path d="M429.203 280.515L425.459 278.056H345.697V279.18L429.203 280.515Z" fill="#B2B6BB"/>
<path d="M443.836 350.137L445.673 370.405C445.708 370.577 445.705 370.756 445.662 370.928C445.624 371.1 445.543 371.262 445.431 371.399C445.318 371.536 445.178 371.645 445.02 371.722C444.858 371.799 444.682 371.838 444.507 371.838C444.257 371.838 444.019 371.761 443.815 371.616C443.615 371.472 443.464 371.269 443.383 371.033L438.068 350.137H443.836Z" fill="#DADDDF"/>
<path d="M443.154 361.917L440.928 361.38L438.068 350.14H443.836L445.673 370.407C445.729 370.677 445.69 370.958 445.561 371.201C445.434 371.443 445.223 371.636 444.97 371.742L443.154 361.917Z" fill="#B2B6BB"/>
<path d="M423.138 350.137L424.975 370.405C425.01 370.577 425.01 370.756 424.968 370.928C424.926 371.1 424.848 371.262 424.736 371.399C424.623 371.536 424.483 371.645 424.325 371.722C424.163 371.799 423.988 371.838 423.812 371.838C423.563 371.838 423.324 371.761 423.12 371.616C422.92 371.472 422.769 371.269 422.688 371.033L417.37 350.137H423.138Z" fill="#DADDDF"/>
<path d="M421.213 352.379L417.925 351.756L417.37 350.137H423.138L424.975 370.405C425.031 370.675 424.989 370.953 424.862 371.199C424.732 371.441 424.525 371.631 424.272 371.739L421.213 352.379Z" fill="#B2B6BB"/>
<path d="M370.517 350.137L368.68 370.405C368.645 370.577 368.648 370.756 368.69 370.928C368.732 371.1 368.813 371.258 368.922 371.399C369.034 371.536 369.175 371.645 369.337 371.722C369.495 371.796 369.67 371.838 369.846 371.838C370.095 371.838 370.334 371.761 370.538 371.616C370.738 371.472 370.889 371.269 370.97 371.033L376.288 350.137H370.517Z" fill="#DADDDF"/>
<path d="M371.539 360.924L369.582 360.443L370.516 350.137H376.287L370.969 371.033C370.889 371.269 370.738 371.472 370.537 371.616C370.334 371.761 370.095 371.838 369.845 371.838H369.793L371.539 360.924Z" fill="#B2B6BB"/>
<path d="M349.269 350.137L347.436 370.405C347.399 370.577 347.401 370.756 347.443 370.928C347.484 371.1 347.564 371.262 347.675 371.399C347.787 371.536 347.927 371.645 348.087 371.722C348.247 371.799 348.421 371.838 348.598 371.838C348.846 371.838 349.088 371.761 349.289 371.616C349.491 371.472 349.642 371.269 349.722 371.033L355.04 350.137H349.269Z" fill="#DADDDF"/>
<path d="M351.521 351.904L349.003 351.433L349.269 350.137H355.041L349.723 371.033C349.643 371.269 349.491 371.472 349.289 371.616C349.088 371.761 348.847 371.838 348.599 371.838H348.546L351.521 351.904Z" fill="#B2B6BB"/>
<path d="M293.125 150.596V154.646C293.125 157.404 294.22 160.05 296.171 162C298.121 163.951 300.766 165.046 303.525 165.046C306.283 165.046 308.929 163.951 310.879 162C312.83 160.05 313.926 157.404 313.926 154.646V150.596H293.125Z" fill="#21252B"/>
<path opacity="0.2" d="M293.125 150.596V154.646C293.125 157.404 294.22 160.05 296.171 162C298.121 163.951 300.766 165.046 303.525 165.046C306.283 165.046 308.929 163.951 310.879 162C312.83 160.05 313.926 157.404 313.926 154.646V150.596H293.125Z" fill="black"/>
<path d="M244.815 337.358H201.407C200.321 337.358 199.44 338.238 199.44 339.325V349.395C199.44 350.482 200.321 351.362 201.407 351.362H244.815C245.901 351.362 246.782 350.482 246.782 349.395V339.325C246.782 338.238 245.901 337.358 244.815 337.358Z" fill="#21252B"/>
<path d="M242.538 337.358H199.131C198.044 337.358 197.164 338.238 197.164 339.325V349.395C197.164 350.482 198.044 351.362 199.131 351.362H242.538C243.624 351.362 244.505 350.482 244.505 349.395V339.325C244.505 338.238 243.624 337.358 242.538 337.358Z" fill="#3F4249"/>
<path d="M206.324 345.545H204.779L204.487 346.248H203.725L205.193 342.953H205.945L207.42 346.248H206.619L206.324 345.545ZM206.085 344.966L205.562 343.705L205.039 344.973L206.085 344.966Z" fill="white"/>
<path d="M207.757 342.959H209.257C209.584 342.953 209.907 343.022 210.202 343.163C210.467 343.29 210.69 343.49 210.845 343.739C210.994 344.003 211.073 344.301 211.073 344.604C211.073 344.908 210.994 345.206 210.845 345.47C210.691 345.72 210.467 345.92 210.202 346.046C209.908 346.188 209.584 346.259 209.257 346.254H207.757V342.959ZM209.219 345.625C209.507 345.64 209.789 345.541 210.005 345.351C210.195 345.149 210.3 344.882 210.3 344.604C210.3 344.327 210.195 344.06 210.005 343.858C209.789 343.668 209.507 343.569 209.219 343.584H208.516V345.625H209.219Z" fill="white"/>
<path d="M211.646 342.959H213.142C213.47 342.952 213.795 343.022 214.091 343.163C214.354 343.29 214.576 343.49 214.73 343.739C214.88 344.003 214.958 344.301 214.958 344.605C214.958 344.908 214.88 345.206 214.73 345.47C214.577 345.72 214.355 345.92 214.091 346.046C213.795 346.188 213.47 346.259 213.142 346.254H211.646V342.959ZM213.104 345.625C213.393 345.639 213.676 345.541 213.894 345.351C214.083 345.149 214.189 344.882 214.189 344.605C214.189 344.327 214.083 344.06 213.894 343.858C213.676 343.668 213.393 343.57 213.104 343.584H212.401V345.625H213.104Z" fill="white"/>
<path d="M217.547 343.57H216.493V342.948H219.363V343.57H218.309V346.243H217.547V343.57Z" fill="white"/>
<path d="M220.396 346.088C220.129 345.947 219.906 345.736 219.753 345.477C219.603 345.218 219.527 344.923 219.531 344.623C219.527 344.316 219.607 344.013 219.763 343.749C219.917 343.49 220.139 343.28 220.406 343.141C220.692 342.991 221.011 342.915 221.333 342.92C221.654 342.914 221.971 342.991 222.254 343.141C222.52 343.281 222.744 343.491 222.9 343.749C223.057 344.013 223.138 344.316 223.135 344.623C223.139 344.928 223.059 345.227 222.903 345.489C222.748 345.75 222.523 345.964 222.254 346.106C221.971 346.256 221.654 346.332 221.333 346.327C221.005 346.328 220.683 346.246 220.396 346.088ZM221.85 345.526C221.998 345.434 222.119 345.304 222.201 345.15C222.291 344.989 222.339 344.808 222.341 344.623C222.344 344.432 222.298 344.244 222.208 344.075C222.125 343.923 222.004 343.794 221.857 343.703C221.696 343.612 221.514 343.566 221.33 343.57C221.145 343.565 220.963 343.611 220.803 343.703C220.647 343.79 220.518 343.919 220.431 344.075C220.34 344.244 220.294 344.432 220.297 344.623C220.294 344.813 220.34 345.001 220.431 345.168C220.518 345.325 220.647 345.455 220.803 345.544C220.964 345.633 221.145 345.679 221.33 345.677C221.513 345.673 221.692 345.621 221.85 345.526Z" fill="white"/>
<path d="M225.696 346.087C225.431 345.948 225.21 345.739 225.056 345.483C224.902 345.216 224.821 344.913 224.821 344.605C224.821 344.297 224.902 343.994 225.056 343.727C225.209 343.469 225.43 343.258 225.696 343.119C225.956 342.988 226.242 342.915 226.533 342.903C226.824 342.891 227.115 342.942 227.385 343.053C227.611 343.146 227.81 343.295 227.965 343.485L227.476 343.92C227.376 343.798 227.249 343.7 227.106 343.634C226.962 343.568 226.806 343.535 226.647 343.537C226.457 343.532 226.269 343.578 226.103 343.671C225.945 343.757 225.815 343.886 225.727 344.043C225.637 344.211 225.591 344.4 225.594 344.591C225.591 344.781 225.637 344.968 225.727 345.136C225.815 345.293 225.945 345.424 226.103 345.511C226.27 345.602 226.458 345.648 226.647 345.645C226.806 345.646 226.963 345.612 227.107 345.545C227.25 345.477 227.377 345.378 227.476 345.255L227.965 345.705C227.809 345.896 227.609 346.047 227.382 346.144C227.136 346.246 226.872 346.297 226.605 346.295C226.29 346.303 225.977 346.232 225.696 346.087Z" fill="white"/>
<path d="M230.581 345.545H229.053L228.762 346.248H227.979L229.447 342.953H230.202L231.674 346.248H230.873L230.581 345.545ZM230.342 344.966L229.819 343.705L229.299 344.973L230.342 344.966Z" fill="white"/>
<path d="M234.116 346.254L233.483 345.333H232.781V346.254H232.019V342.959H233.445C233.705 342.953 233.963 343.002 234.203 343.103C234.405 343.191 234.578 343.335 234.702 343.517C234.82 343.708 234.881 343.929 234.874 344.153C234.889 344.378 234.831 344.602 234.709 344.792C234.587 344.981 234.407 345.127 234.196 345.207L234.937 346.261L234.116 346.254ZM233.926 343.728C233.774 343.62 233.589 343.568 233.402 343.581H232.781V344.726H233.402C233.589 344.738 233.774 344.686 233.926 344.578C233.985 344.525 234.031 344.459 234.062 344.386C234.092 344.312 234.106 344.233 234.101 344.153C234.107 344.074 234.095 343.995 234.066 343.921C234.036 343.848 233.991 343.782 233.933 343.728H233.926Z" fill="white"/>
<path d="M236.114 343.57H235.061V342.948H237.934V343.57H236.88V346.243H236.118L236.114 343.57Z" fill="white"/>
<path d="M300.393 337.358H256.985C255.899 337.358 255.018 338.238 255.018 339.325V349.395C255.018 350.482 255.899 351.362 256.985 351.362H300.393C301.479 351.362 302.36 350.482 302.36 349.395V339.325C302.36 338.238 301.479 337.358 300.393 337.358Z" fill="#FFBD3A"/>
<path opacity="0.15" d="M300.393 337.358H256.985C255.899 337.358 255.018 338.238 255.018 339.325V349.395C255.018 350.482 255.899 351.362 256.985 351.362H300.393C301.479 351.362 302.36 350.482 302.36 349.395V339.325C302.36 338.238 301.479 337.358 300.393 337.358Z" fill="black"/>
<path d="M298.113 337.358H254.705C253.619 337.358 252.738 338.238 252.738 339.325V349.395C252.738 350.482 253.619 351.362 254.705 351.362H298.113C299.199 351.362 300.08 350.482 300.08 349.395V339.325C300.08 338.238 299.199 337.358 298.113 337.358Z" fill="#FFBD3A"/>
<path d="M267.168 344.835C267.277 344.985 267.332 345.167 267.326 345.352C267.33 345.483 267.3 345.613 267.238 345.73C267.177 345.846 267.086 345.945 266.975 346.016C266.679 346.192 266.336 346.274 265.992 346.251H264.288V342.956H265.897C266.222 342.936 266.546 343.016 266.824 343.185C266.926 343.254 267.009 343.348 267.064 343.458C267.12 343.568 267.148 343.69 267.144 343.813C267.147 343.964 267.108 344.112 267.031 344.242C266.951 344.367 266.84 344.468 266.708 344.537C266.89 344.584 267.051 344.689 267.168 344.835ZM265.061 343.529V344.305H265.82C265.969 344.315 266.118 344.28 266.248 344.207C266.294 344.173 266.331 344.129 266.356 344.078C266.381 344.028 266.393 343.972 266.392 343.915C266.395 343.859 266.384 343.802 266.358 343.752C266.333 343.701 266.295 343.658 266.248 343.627C266.118 343.553 265.969 343.519 265.82 343.529H265.061ZM266.406 345.577C266.455 345.543 266.495 345.497 266.521 345.443C266.548 345.39 266.56 345.33 266.557 345.271C266.557 344.997 266.353 344.86 265.95 344.86H265.061V345.675H265.95C266.109 345.685 266.268 345.651 266.41 345.577H266.406Z" fill="white"/>
<path d="M268.271 345.916C268.133 345.767 268.027 345.591 267.959 345.4C267.892 345.208 267.864 345.005 267.877 344.803V342.958H268.639V344.774C268.639 345.365 268.885 345.66 269.374 345.66C269.475 345.666 269.577 345.649 269.671 345.613C269.766 345.576 269.851 345.518 269.922 345.445C270.061 345.25 270.126 345.013 270.108 344.774V342.958H270.863V344.803C270.876 345.005 270.847 345.208 270.78 345.399C270.712 345.59 270.606 345.766 270.469 345.916C270.16 346.171 269.771 346.31 269.37 346.31C268.969 346.31 268.58 346.171 268.271 345.916Z" fill="white"/>
<path d="M273.15 345.083V346.253H272.387V345.076L271.112 342.969H271.92L272.802 344.43L273.68 342.969H274.428L273.15 345.083Z" fill="white"/>
<path d="M279.1 342.958V346.253H278.475L276.835 344.251V346.253H276.083V342.958H276.715L278.352 344.957V342.958H279.1Z" fill="white"/>
<path d="M280.554 346.087C280.284 345.946 280.059 345.732 279.905 345.471C279.749 345.209 279.67 344.909 279.676 344.605C279.671 344.298 279.752 343.995 279.907 343.73C280.063 343.472 280.286 343.262 280.554 343.123C280.84 342.977 281.156 342.901 281.477 342.901C281.798 342.901 282.115 342.977 282.401 343.123C282.67 343.265 282.895 343.478 283.05 343.74C283.205 344.001 283.284 344.301 283.279 344.605C283.285 344.912 283.203 345.214 283.044 345.476C282.889 345.735 282.667 345.946 282.401 346.087C282.115 346.233 281.798 346.309 281.477 346.309C281.156 346.309 280.84 346.233 280.554 346.087ZM282.004 345.525C282.154 345.435 282.275 345.305 282.356 345.149C282.447 344.983 282.493 344.795 282.489 344.605C282.493 344.414 282.447 344.225 282.356 344.057C282.275 343.903 282.154 343.774 282.004 343.685C281.843 343.597 281.662 343.551 281.477 343.551C281.293 343.551 281.113 343.597 280.951 343.685C280.795 343.771 280.667 343.901 280.582 344.057C280.49 344.225 280.444 344.414 280.448 344.605C280.444 344.795 280.49 344.983 280.582 345.149C280.667 345.307 280.795 345.437 280.951 345.525C281.113 345.613 281.293 345.659 281.477 345.659C281.662 345.659 281.843 345.613 282.004 345.525Z" fill="white"/>
<path d="M288.728 342.958L287.649 346.253H286.831L286.107 344.023L285.359 346.253H284.544L283.459 342.958H284.249L284.994 345.273L285.77 342.958H286.473L287.224 345.291L287.994 342.958H288.728Z" fill="white"/>
<path opacity="0.3" d="M313.881 129.082C313.881 129.194 313.881 129.31 313.905 129.433C313.898 129.307 313.891 129.194 313.881 129.082Z" fill="black"/>
<path opacity="0.3" d="M304.987 121.055H197.462C195.775 121.077 194.119 121.513 192.639 122.324C191.158 123.135 189.9 124.296 188.973 125.706C190.047 124.961 191.565 125.073 193.363 125.07H307.372C310.625 125.07 313.515 125.927 313.881 129.085C313.655 126.883 312.62 124.843 310.978 123.36C309.335 121.877 307.2 121.056 304.987 121.055Z" fill="black"/>
<path opacity="0.2" d="M198.931 307.743L182.861 340.764L182.777 302.397L198.931 307.743Z" fill="black"/>
<path d="M153.901 264.372L91.9353 326.338C90.3126 327.96 90.3126 330.592 91.9353 332.215L130.378 370.657C132.001 372.28 134.632 372.28 136.255 370.657L198.221 308.691C199.844 307.068 199.844 304.437 198.221 302.815L159.778 264.372C158.155 262.749 155.524 262.749 153.901 264.372Z" fill="#21252B"/>
<path d="M155.925 271.259L143.527 283.658C143.02 284.164 143.02 284.985 143.527 285.491L145.705 287.669C146.211 288.176 147.032 288.176 147.538 287.669L159.937 275.271C160.443 274.765 160.443 273.944 159.937 273.438L157.758 271.259C157.252 270.753 156.432 270.753 155.925 271.259Z" fill="#FFBD3A"/>
<path d="M119.466 325.778L108.774 336.471L111.243 338.94L121.935 328.247L119.466 325.778Z" fill="#FFBD3A"/>
<path d="M113.056 326.556L106.755 332.854C106.543 333.067 106.424 333.356 106.424 333.657C106.424 333.957 106.543 334.246 106.755 334.459L108.423 336.124L115.522 329.025L113.056 326.556Z" fill="#FFBD3A"/>
<path d="M115.842 323.767L113.405 326.226L115.864 328.685L119.109 325.439L117.441 323.774C117.229 323.563 116.942 323.444 116.643 323.443C116.344 323.442 116.056 323.558 115.842 323.767Z" fill="#FFBD3A"/>
<path d="M113.253 340.956C113.466 341.168 113.755 341.287 114.056 341.287C114.356 341.287 114.645 341.168 114.858 340.956L117.549 338.261L115.09 335.803L111.599 339.294L113.253 340.956Z" fill="#FFBD3A"/>
<path d="M117.897 337.914L123.946 331.865C124.051 331.76 124.135 331.636 124.191 331.498C124.249 331.361 124.278 331.213 124.278 331.064C124.278 330.916 124.249 330.768 124.191 330.631C124.135 330.494 124.051 330.369 123.946 330.264L122.281 328.595L115.428 335.448L117.897 337.914Z" fill="#FFBD3A"/>
<path d="M131.147 334.962L119.662 346.447C119.41 346.699 119.41 347.108 119.662 347.361L122.071 349.77C122.324 350.023 122.733 350.023 122.985 349.77L134.47 338.285C134.722 338.033 134.722 337.624 134.47 337.371L132.061 334.962C131.808 334.71 131.399 334.71 131.147 334.962Z" fill="white"/>
<path d="M145.436 320.677L133.951 332.162C133.699 332.414 133.699 332.823 133.951 333.076L136.36 335.485C136.613 335.737 137.022 335.737 137.274 335.485L148.759 324C149.011 323.748 149.011 323.339 148.759 323.086L146.35 320.677C146.097 320.425 145.688 320.425 145.436 320.677Z" fill="white"/>
<path d="M159.727 306.386L148.242 317.871C147.99 318.123 147.99 318.533 148.242 318.785L150.652 321.194C150.904 321.447 151.313 321.447 151.566 321.194L163.05 309.71C163.303 309.457 163.303 309.048 163.05 308.796L160.641 306.386C160.389 306.134 159.979 306.134 159.727 306.386Z" fill="white"/>
<path d="M174.017 292.096L162.532 303.581C162.279 303.834 162.279 304.243 162.532 304.495L164.941 306.904C165.193 307.157 165.602 307.157 165.855 306.904L177.34 295.42C177.592 295.167 177.592 294.758 177.34 294.506L174.93 292.096C174.678 291.844 174.269 291.844 174.017 292.096Z" fill="white"/>
<path d="M151.296 336.174L130.294 357.177C129.917 357.553 129.916 358.164 130.293 358.54C130.669 358.919 131.28 358.919 131.658 358.54L152.66 337.538C153.037 337.161 153.038 336.55 152.661 336.173C152.284 335.797 151.673 335.797 151.296 336.174Z" fill="white"/>
<path opacity="0.7" d="M155.925 271.259L143.527 283.658C143.02 284.164 143.02 284.985 143.527 285.491L145.705 287.669C146.211 288.176 147.032 288.176 147.538 287.669L159.937 275.271C160.443 274.765 160.443 273.944 159.937 273.438L157.758 271.259C157.252 270.753 156.432 270.753 155.925 271.259Z" fill="white"/>
<path opacity="0.7" d="M151.296 336.174L130.294 357.177C129.917 357.553 129.916 358.164 130.293 358.54C130.669 358.919 131.28 358.919 131.658 358.54L152.66 337.538C153.037 337.161 153.038 336.55 152.661 336.173C152.284 335.797 151.673 335.797 151.296 336.174Z" fill="white"/>
<path d="M188.174 303.391C186.107 301.324 182.755 301.324 180.688 303.391C178.621 305.458 178.621 308.809 180.688 310.877C182.755 312.944 186.107 312.944 188.174 310.877C190.241 308.809 190.241 305.458 188.174 303.391Z" fill="#FFBD3A"/>
<path d="M183.144 308.421C181.077 306.354 177.725 306.354 175.658 308.421C173.591 310.489 173.591 313.84 175.658 315.907C177.725 317.974 181.077 317.974 183.144 315.907C185.211 313.84 185.211 310.489 183.144 308.421Z" fill="white"/>
<path d="M409.649 352.268V364.692H399.895L398.504 352.949L398.42 352.236L409.649 352.268Z" fill="#F59A9C"/>
<path opacity="0.15" d="M409.649 352.268V355.429L405.55 355.822C404.963 355.875 404.408 356.107 403.959 356.483C403.506 356.858 403.179 357.364 403.021 357.93L400.049 364.677H399.895L398.49 352.935C399.972 352.44 409.649 352.268 409.649 352.268Z" fill="#231F20"/>
<path d="M408.603 358.943L408.322 358.662C407.229 357.601 405.764 357.011 404.243 357.028C402.719 357.042 401.265 357.66 400.197 358.742L400.036 358.943C399.495 359.49 399.193 360.225 399.193 360.994V362.202C399.21 362.919 399.098 363.632 398.869 364.31L397.865 367.65C397.612 368.458 397.475 369.297 397.464 370.144V370.544C397.475 370.864 397.612 371.166 397.847 371.384C398.079 371.602 398.388 371.717 398.708 371.71H410.299C410.457 371.717 410.619 371.693 410.766 371.64C410.917 371.584 411.054 371.5 411.17 371.391C411.286 371.282 411.381 371.152 411.444 371.008C411.507 370.86 411.542 370.702 411.546 370.544V370.383C411.542 369.399 411.377 368.419 411.061 367.488L409.895 364.229C409.642 363.477 409.509 362.69 409.495 361.897L409.453 360.973C409.445 360.211 409.14 359.483 408.603 358.943Z" fill="#FFBD3A"/>
<path d="M410.281 371.191H398.69C398.427 371.198 398.167 371.12 397.949 370.969C397.735 370.815 397.573 370.597 397.489 370.348C397.461 370.587 397.447 370.829 397.447 371.071V371.458C397.464 371.77 397.605 372.065 397.837 372.276C398.068 372.487 398.378 372.596 398.69 372.582H410.281C410.436 372.592 410.594 372.571 410.742 372.518C410.889 372.469 411.026 372.388 411.142 372.283C411.258 372.178 411.353 372.051 411.42 371.911C411.486 371.767 411.521 371.616 411.528 371.458V371.317C411.525 371.015 411.507 370.713 411.469 370.411C411.381 370.65 411.216 370.853 411.002 370.994C410.787 371.134 410.538 371.205 410.281 371.191Z" fill="#61656D"/>
<path opacity="0.4" d="M401.047 361.52C401.286 361.52 401.482 361.326 401.482 361.084C401.482 360.845 401.286 360.648 401.047 360.648C400.805 360.648 400.611 360.845 400.611 361.084C400.611 361.326 400.805 361.52 401.047 361.52Z" fill="#231F20"/>
<path opacity="0.4" d="M401.278 363.257C401.517 363.257 401.714 363.064 401.714 362.821C401.714 362.582 401.517 362.386 401.278 362.386C401.036 362.386 400.843 362.582 400.843 362.821C400.843 363.064 401.036 363.257 401.278 363.257Z" fill="#231F20"/>
<path opacity="0.4" d="M401.859 364.935C402.098 364.935 402.294 364.738 402.294 364.499C402.294 364.257 402.098 364.063 401.859 364.063C401.62 364.063 401.423 364.257 401.423 364.499C401.423 364.738 401.62 364.935 401.859 364.935Z" fill="#231F20"/>
<path opacity="0.4" d="M401.936 366.979C402.174 366.979 402.371 366.782 402.371 366.543C402.371 366.305 402.174 366.108 401.936 366.108C401.693 366.108 401.5 366.305 401.5 366.543C401.5 366.782 401.693 366.979 401.936 366.979Z" fill="#231F20"/>
<path opacity="0.4" d="M402.149 368.748C402.388 368.748 402.585 368.555 402.585 368.312C402.585 368.074 402.388 367.877 402.149 367.877C401.911 367.877 401.714 368.074 401.714 368.312C401.714 368.555 401.911 368.748 402.149 368.748Z" fill="#231F20"/>
<path opacity="0.4" d="M407.636 368.366C407.875 368.366 408.071 368.173 408.071 367.93C408.071 367.691 407.875 367.495 407.636 367.495C407.393 367.495 407.2 367.691 407.2 367.93C407.2 368.173 407.393 368.366 407.636 368.366Z" fill="#231F20"/>
<path opacity="0.4" d="M407.454 366.719C407.693 366.719 407.89 366.523 407.89 366.284C407.89 366.041 407.693 365.848 407.454 365.848C407.212 365.848 407.019 366.041 407.019 366.284C407.019 366.523 407.212 366.719 407.454 366.719Z" fill="#231F20"/>
<path opacity="0.4" d="M407.232 364.542C407.471 364.542 407.667 364.349 407.667 364.106C407.667 363.868 407.471 363.671 407.232 363.671C406.99 363.671 406.796 363.868 406.796 364.106C406.796 364.349 406.99 364.542 407.232 364.542Z" fill="#231F20"/>
<path opacity="0.4" d="M406.653 362.825C406.892 362.825 407.088 362.628 407.088 362.39C407.088 362.151 406.892 361.954 406.653 361.954C406.41 361.954 406.217 362.151 406.217 362.39C406.217 362.628 406.41 362.825 406.653 362.825Z" fill="#231F20"/>
<path opacity="0.4" d="M406.58 361.189C406.818 361.189 407.015 360.992 407.015 360.753C407.015 360.511 406.818 360.318 406.58 360.318C406.337 360.318 406.144 360.511 406.144 360.753C406.144 360.992 406.337 361.189 406.58 361.189Z" fill="#231F20"/>
<path d="M401.209 360.996C401.209 360.996 403.176 358.889 406.58 360.645" stroke="white" stroke-width="0.35125" stroke-miterlimit="10" stroke-linecap="round"/>
<path d="M401.279 362.713C401.279 362.713 403.246 360.605 406.653 362.361" stroke="white" stroke-width="0.35125" stroke-miterlimit="10" stroke-linecap="round"/>
<path d="M401.858 364.43C402.3 363.955 404.745 362.796 407.232 364.078" stroke="white" stroke-width="0.35125" stroke-miterlimit="10" stroke-linecap="round"/>
<path d="M402.08 366.505C402.08 366.505 404.051 364.398 407.454 366.154" stroke="white" stroke-width="0.35125" stroke-miterlimit="10" stroke-linecap="round"/>
<path d="M402.15 368.222C402.15 368.222 404.12 366.114 407.524 367.871" stroke="white" stroke-width="0.35125" stroke-miterlimit="10" stroke-linecap="round"/>
<path d="M372.592 352.886L372.518 353.715L372.476 354.179L371.482 365.366L352.922 365.766L358.257 362.008C358.735 361.629 359.143 361.168 359.462 360.649C360.056 359.785 360.439 358.791 360.572 357.751L361.306 353.012L361.331 352.858L372.592 352.886Z" fill="#F59A9C"/>
<path opacity="0.15" d="M372.518 353.712L372.476 354.176L365.543 355.511C364.798 355.655 364.123 356.041 363.625 356.607C363.122 357.176 362.827 357.896 362.778 358.651L362.624 361.11L359.462 360.664C360.056 359.799 360.439 358.805 360.572 357.766L361.306 353.027L372.518 353.712Z" fill="#231F20"/>
<path d="M372.606 370.226L341.96 370.289C341.893 370.159 341.844 370.019 341.816 369.875C341.765 370.215 341.753 370.559 341.781 370.9C341.799 371.167 341.919 371.417 342.114 371.599C342.31 371.782 342.567 371.88 342.835 371.88L371.616 371.824C371.886 371.824 372.146 371.722 372.34 371.536C372.536 371.353 372.656 371.1 372.67 370.83L372.606 370.226Z" fill="#61656D"/>
<path d="M343.632 366.975C349.101 364.692 353.544 362.799 357.619 359.381C358.546 358.601 359.694 358.134 360.903 358.036L371.897 357.151C372.087 357.137 372.276 357.161 372.455 357.225C372.635 357.291 372.8 357.393 372.937 357.527C373.07 357.66 373.179 357.822 373.246 357.997C373.316 358.176 373.344 358.366 373.334 358.556L372.606 370.221L341.96 370.284C341.314 369.03 342.669 367.379 343.632 366.975Z" fill="#FFBD3A"/>
<path opacity="0.4" d="M348.995 367.5C349.307 367.5 349.561 367.272 349.561 366.987C349.561 366.703 349.307 366.475 348.995 366.475C348.683 366.475 348.43 366.703 348.43 366.987C348.43 367.272 348.683 367.5 348.995 367.5Z" fill="#231F20"/>
<path opacity="0.4" d="M352.354 366.632C352.666 366.632 352.919 366.403 352.919 366.119C352.919 365.834 352.666 365.606 352.354 365.606C352.041 365.606 351.788 365.834 351.788 366.119C351.788 366.403 352.041 366.632 352.354 366.632Z" fill="#231F20"/>
<path opacity="0.4" d="M355.142 364.814C355.454 364.814 355.707 364.585 355.707 364.301C355.707 364.016 355.454 363.788 355.142 363.788C354.829 363.788 354.576 364.016 354.576 364.301C354.576 364.585 354.829 364.814 355.142 364.814Z" fill="#231F20"/>
<path opacity="0.4" d="M357.847 362.969C358.159 362.969 358.412 362.741 358.412 362.457C358.412 362.172 358.159 361.944 357.847 361.944C357.534 361.944 357.281 362.172 357.281 362.457C357.281 362.741 357.534 362.969 357.847 362.969Z" fill="#231F20"/>
<path opacity="0.4" d="M360.242 360.722C360.554 360.722 360.807 360.494 360.807 360.209C360.807 359.925 360.554 359.696 360.242 359.696C359.929 359.696 359.676 359.925 359.676 360.209C359.676 360.494 359.929 360.722 360.242 360.722Z" fill="#231F20"/>
<path d="M347.927 365.774L348.299 366.726C348.358 366.852 348.463 366.954 348.593 367.007C348.724 367.063 348.87 367.063 349.002 367.014C349.069 366.993 349.131 366.957 349.182 366.912C349.234 366.863 349.274 366.803 349.3 366.74C349.326 366.673 349.337 366.603 349.332 366.536C349.327 366.466 349.307 366.395 349.272 366.336L348.735 365.419L347.927 365.774Z" fill="white"/>
<path d="M350.917 364.431L351.619 365.871C351.69 366.001 351.813 366.099 351.953 366.142C352.097 366.184 352.248 366.17 352.382 366.099C352.441 366.071 352.494 366.033 352.54 365.987C352.582 365.938 352.617 365.882 352.635 365.818C352.656 365.759 352.663 365.692 352.659 365.625C352.652 365.562 352.631 365.499 352.599 365.443L351.788 364.038L350.917 364.431Z" fill="white"/>
<path d="M353.421 362.963L354.38 364.196C354.478 364.312 354.615 364.386 354.766 364.4C354.917 364.414 355.068 364.364 355.184 364.27L355.219 364.238C355.265 364.199 355.304 364.154 355.332 364.104C355.36 364.052 355.374 363.996 355.381 363.936C355.388 363.88 355.381 363.82 355.363 363.764C355.349 363.708 355.321 363.655 355.283 363.609L354.359 362.454L353.421 362.963Z" fill="white"/>
<path d="M355.865 361.429L357.098 362.507C357.2 362.595 357.33 362.641 357.463 362.641C357.6 362.641 357.73 362.595 357.832 362.507C357.888 362.462 357.931 362.406 357.962 362.342C357.99 362.276 358.004 362.205 358.001 362.135C357.997 362.065 357.976 361.995 357.941 361.931C357.906 361.872 357.857 361.819 357.797 361.78L356.561 360.906L355.865 361.429Z" fill="white"/>
<path d="M358.275 359.41C358.275 359.41 358.995 359.954 359.466 360.302C359.575 360.379 359.708 360.415 359.841 360.401C359.975 360.386 360.098 360.32 360.186 360.221C360.231 360.169 360.259 360.105 360.277 360.039C360.291 359.972 360.291 359.902 360.273 359.835C360.256 359.768 360.224 359.705 360.179 359.652C360.133 359.6 360.073 359.561 360.01 359.536L358.577 358.89L358.275 359.41Z" fill="white"/>
<path d="M363.895 225.2L360.119 353.367L372.922 353.409L383.951 246.795C384.029 246.008 385.332 245.411 385.332 245.411C385.694 245.429 386.034 245.58 386.291 245.836C386.544 246.092 386.695 246.433 386.712 246.795L397.58 353.311H409.99L409.558 225.2H363.895Z" fill="#414042"/>
<path opacity="0.4" d="M402.936 353.305L392.441 251.893C392.29 250.437 391.657 249.073 390.646 248.017C389.631 246.96 388.296 246.271 386.849 246.058L386.406 245.995C386.578 246.233 386.684 246.511 386.712 246.803L397.58 353.319L402.936 353.305Z" fill="#231F20"/>
<path opacity="0.4" d="M368.11 225.2H363.895L360.119 353.311H364.619L368.11 225.2Z" fill="#231F20"/>
<path d="M373.158 353.41H359.85L360.05 350.621H373.429L373.158 353.41Z" fill="#3F4249"/>
<path opacity="0.4" d="M364.609 353.41H359.85L360.05 350.621H364.711L364.609 353.41Z" fill="#231F20"/>
<path d="M410.176 353.312H397.095L396.835 350.621H410.176V353.312Z" fill="#3F4249"/>
<path opacity="0.4" d="M402.937 353.308L397.095 353.312L396.835 350.621H402.722L402.937 353.308Z" fill="#231F20"/>
<path d="M414.795 155.79C413.091 155.266 409.557 202.506 409.557 220.63V225.197H363.895L361.373 177.89C360.435 167.792 362.49 155.47 360.126 153.766C376.656 146.446 408.883 151.209 414.795 155.79Z" fill="#FFBD3A"/>
<path d="M364.246 225.2H409.557V223.626H363.811L363.926 225.2H364.246Z" fill="#FFBD3A"/>
<path opacity="0.5" d="M364.246 225.2H409.557V223.626H363.811L363.926 225.2H364.246Z" fill="#231F20"/>
<path d="M364.246 222.388H409.557V220.814H363.811L363.926 222.388H364.246Z" fill="#FFBD3A"/>
<path opacity="0.5" d="M364.246 222.388H409.557V220.814H363.811L363.926 222.388H364.246Z" fill="#231F20"/>
<path d="M364.246 219.227H409.557V217.654H363.811L363.926 219.227H364.246Z" fill="#FFBD3A"/>
<path opacity="0.5" d="M364.246 219.227H409.557V217.654H363.811L363.926 219.227H364.246Z" fill="#231F20"/>
<path d="M379.522 155.964V176.428" stroke="black" stroke-width="1.405" stroke-miterlimit="10" stroke-linecap="round"/>
<path d="M379.663 174.969C380.073 174.969 380.404 174.636 380.404 174.225C380.404 173.813 380.073 173.48 379.663 173.48C379.252 173.48 378.921 173.813 378.921 174.225C378.921 174.636 379.252 174.969 379.663 174.969Z" fill="white"/>
<path d="M392.904 155.74V176.208" stroke="black" stroke-width="1.405" stroke-miterlimit="10" stroke-linecap="round"/>
<path d="M393.01 174.27C393.421 174.27 393.751 173.936 393.751 173.525C393.751 173.114 393.421 172.78 393.01 172.78C392.599 172.78 392.269 173.114 392.269 173.525C392.269 173.936 392.599 174.27 393.01 174.27Z" fill="white"/>
<path d="M397.615 180.939L411.609 179.787L428.213 201.628L412.947 219.022L416.435 226.904L442.617 206.152C443.717 205.27 444.468 204.029 444.742 202.647C445.016 201.265 444.792 199.831 444.114 198.597L419.744 159.562C417.787 155.993 410.734 153.457 406.769 153.893L395.859 161.269L397.615 180.939Z" fill="#FFBD3A"/>
<path opacity="0.15" d="M428.174 201.667L411.665 179.89L413.07 169.352L430.805 194.969C431.166 195.491 431.356 196.111 431.349 196.745C431.346 197.379 431.145 197.997 430.777 198.513L428.174 201.667Z" fill="#231F20"/>
<path d="M412.923 219.066L416.421 226.905L417.229 226.252L413.611 218.317L412.923 219.066Z" fill="#FFBD3A"/>
<path opacity="0.5" d="M412.923 219.067L416.421 226.906L417.229 226.253L413.597 218.283L412.923 219.067Z" fill="#231F20"/>
<path d="M414.068 217.742L417.672 225.894L418.505 225.227L414.743 216.973L414.068 217.742Z" fill="#FFBD3A"/>
<path opacity="0.5" d="M414.068 217.742L417.672 225.894L418.505 225.227L414.743 216.973L414.068 217.742Z" fill="#231F20"/>
<path d="M415.195 216.461L418.922 224.891L419.755 224.227L415.866 215.695L415.195 216.461Z" fill="#FFBD3A"/>
<path opacity="0.5" d="M415.195 216.461L418.922 224.891L419.755 224.227L415.866 215.695L415.195 216.461Z" fill="#231F20"/>
<path opacity="0.4" d="M409.375 238.617L402.596 228.273C403.938 226.956 407.268 224.448 409.372 225.112C409.372 225.119 409.67 239.411 409.375 238.617Z" fill="#231F20"/>
<path d="M416.435 226.904L412.947 219.022L410.362 222.303C410.172 222.542 409.947 222.752 409.695 222.924C408.827 223.514 406.786 224.905 406.793 224.895L403.829 227.596L408.95 235.734C415.241 231.66 412.027 230.301 414.805 228.288C415.178 228.007 416.435 226.904 416.435 226.904Z" fill="#FC9D9D"/>
<path opacity="0.2" d="M413.338 219.905L412.986 218.999L409.962 222.785C407.619 224.159 405.473 225.848 403.587 227.804L404.244 228.858L413.338 219.905Z" fill="#231F20"/>
<path d="M386.315 160.156C382.803 157.929 371.099 150.694 368.549 151.115C368.019 148.33 372.947 150.219 374.706 147.711C375.167 147.028 375.813 146.491 376.568 146.162C378.029 145.555 379.216 145.755 379.606 146.113C385.283 151.301 389.09 149.102 395.005 145.242C395.708 144.785 398.518 145.021 399.245 147.455C401.595 151.6 406.136 148.238 406.136 152.334C406.136 152.646 405.715 152.622 405.082 152.481C402.849 151.995 400.513 152.337 398.514 153.444L388.328 160.139C388.029 160.334 387.682 160.44 387.323 160.443C386.969 160.446 386.617 160.347 386.315 160.156Z" fill="black"/>
<path d="M296.592 168.836L292.816 166.869L287.618 166.574C287.523 166.565 287.427 166.579 287.338 166.615C287.249 166.651 287.171 166.708 287.11 166.782C287.048 166.856 287.006 166.943 286.986 167.036C286.967 167.13 286.97 167.227 286.996 167.319C287.037 167.464 287.12 167.593 287.234 167.691C287.349 167.789 287.489 167.852 287.639 167.87L292.441 168.608L294.931 170.564L292.441 168.608L288.134 168.366C288.056 168.36 287.978 168.372 287.905 168.399C287.832 168.427 287.766 168.471 287.713 168.527C287.659 168.584 287.618 168.651 287.593 168.726C287.568 168.799 287.56 168.878 287.569 168.956C287.599 169.096 287.676 169.222 287.787 169.314C287.898 169.406 288.036 169.458 288.18 169.461L292.395 170.101L296.006 172.911L292.395 170.101L289.177 170.255C289.124 170.258 289.072 170.272 289.025 170.298C288.978 170.324 288.938 170.36 288.907 170.403C288.876 170.447 288.856 170.498 288.847 170.55C288.838 170.603 288.842 170.657 288.858 170.708C288.895 170.797 288.955 170.873 289.031 170.93C289.108 170.988 289.198 171.024 289.293 171.035L292.844 171.386L296.357 173.771L296.592 168.836Z" fill="#FC9D9D"/>
<path opacity="0.15" d="M296.592 168.836L292.816 166.869L287.618 166.574C287.523 166.565 287.427 166.579 287.338 166.615C287.249 166.651 287.171 166.708 287.11 166.782C287.048 166.856 287.006 166.943 286.986 167.036C286.967 167.13 286.97 167.227 286.996 167.319C287.037 167.464 287.12 167.593 287.234 167.691C287.349 167.789 287.489 167.852 287.639 167.87L292.441 168.608L294.931 170.564L292.441 168.608L288.134 168.366C288.056 168.36 287.978 168.372 287.905 168.399C287.832 168.427 287.766 168.471 287.713 168.527C287.659 168.584 287.618 168.651 287.593 168.726C287.568 168.799 287.56 168.878 287.569 168.956C287.599 169.096 287.676 169.222 287.787 169.314C287.898 169.406 288.036 169.458 288.18 169.461L292.395 170.101L296.006 172.911L292.395 170.101L289.177 170.255C289.124 170.258 289.072 170.272 289.025 170.298C288.978 170.324 288.938 170.36 288.907 170.403C288.876 170.447 288.856 170.498 288.847 170.55C288.838 170.603 288.842 170.657 288.858 170.708C288.895 170.797 288.955 170.873 289.031 170.93C289.108 170.988 289.198 171.024 289.293 171.035L292.844 171.386L296.357 173.771L296.592 168.836Z" fill="black"/>
<path d="M296.779 167.401L301.394 172.972C301.667 173.283 301.999 173.538 302.371 173.72L313.07 178.672L309.719 185.188L299.729 180.039C297.523 179.853 295.672 178.486 294.32 176.853H294.281C294.091 176.626 293.86 176.436 293.6 176.294C292.634 175.831 290.256 174.658 290.256 174.658C290.221 174.643 290.188 174.621 290.161 174.594C290.134 174.567 290.112 174.535 290.098 174.499C290.084 174.463 290.077 174.425 290.077 174.386C290.078 174.348 290.086 174.31 290.102 174.275C290.236 173.945 290.485 173.675 290.802 173.515C291.12 173.355 291.485 173.315 291.83 173.404L293.625 173.79C294.58 173.969 295.381 173.288 295.286 172.427L294.626 168.648C294.611 168.528 294.573 168.413 294.512 168.309C294.452 168.205 294.371 168.115 294.274 168.044L288.707 164.152C288.649 164.122 288.599 164.081 288.557 164.031C288.515 163.981 288.484 163.923 288.465 163.861C288.446 163.799 288.44 163.733 288.446 163.669C288.453 163.604 288.472 163.541 288.503 163.484C288.543 163.413 288.597 163.351 288.661 163.301C288.725 163.251 288.798 163.213 288.876 163.192C288.954 163.17 289.036 163.164 289.117 163.173C289.198 163.183 289.276 163.209 289.346 163.249C290.829 164.008 295.374 166.459 296.406 167.05C296.545 167.15 296.671 167.268 296.779 167.401Z" fill="#FC9D9D"/>
<path opacity="0.15" d="M300.67 179.034C298.464 178.847 296.237 177.442 294.884 175.806H294.846C294.648 175.578 294.41 175.388 294.143 175.247C293.177 174.783 290.803 173.61 290.803 173.61C290.772 173.598 290.744 173.58 290.719 173.558C290.433 173.709 290.212 173.958 290.097 174.26C290.081 174.296 290.073 174.334 290.072 174.372C290.072 174.41 290.079 174.449 290.093 174.484C290.108 174.52 290.129 174.552 290.156 174.58C290.183 174.607 290.216 174.629 290.251 174.643C290.251 174.643 292.629 175.816 293.595 176.28C293.856 176.422 294.087 176.611 294.277 176.838H294.315C295.668 178.472 297.519 179.838 299.725 180.024L309.714 185.173C309.714 185.173 306.992 181.601 304.182 179.754C302.942 178.956 301.47 178.991 300.67 179.034Z" fill="black"/>
<path d="M339.002 185.859L355.321 157.197C356.206 155.639 357.513 154.363 359.094 153.518C360.674 152.672 362.459 152.292 364.247 152.42L372.954 153.045L365.493 174.204L348.718 200.899C348.024 202.001 347.11 202.947 346.032 203.678C344.955 204.409 343.738 204.908 342.458 205.145C341.177 205.382 339.862 205.351 338.595 205.055C337.327 204.758 336.135 204.202 335.093 203.421L331.464 200.699L339.002 185.859Z" fill="#FFBD3A"/>
<path d="M309.827 185.191L335.251 203.456C340.189 206.617 345.718 205.282 351.025 197.196L354.787 191.225L340.779 182.725L338.166 187.488L313.069 178.671L309.827 185.191Z" fill="#FFBD3A"/>
<path d="M313.073 178.809L309.718 185.188L310.674 185.799L314.13 179.252L313.073 178.809Z" fill="#FFBD3A"/>
<path opacity="0.6" d="M313.069 178.671L309.718 185.187L310.674 185.798L314.221 179.075L313.069 178.671Z" fill="#231F20"/>
<path d="M314.643 179.444L311.13 186.128L312.075 186.757L315.721 179.848L314.643 179.444Z" fill="#FFBD3A"/>
<path opacity="0.6" d="M314.759 179.265L311.13 186.128L312.058 186.792L315.848 179.644L314.759 179.265Z" fill="#231F20"/>
<path d="M316.234 180.042L312.539 187.075L313.505 187.665L317.312 180.45L316.234 180.042Z" fill="#FFBD3A"/>
<path opacity="0.6" d="M316.364 179.803L312.514 187.123L313.438 187.79L317.442 180.207L316.364 179.803Z" fill="#231F20"/>
<path d="M399.768 126.702C399.673 127.257 398.918 139.347 392.687 144.264V130.214L399.768 126.702Z" fill="black"/>
<path d="M396.007 152.434L395.013 137.857L394.805 134.955C394.307 123.814 379.768 132.929 379.768 132.929C379.768 132.929 380.183 136.793 380.348 141.046C380.351 141.924 380.45 142.799 380.64 143.656L379.702 152.311" fill="#FC9D9D"/>
<path d="M396.003 152.433C395.999 152.698 395.929 152.959 395.799 153.192C395.669 153.423 395.483 153.619 395.258 153.76L392.697 155.499L387.267 159.184C387.144 159.254 387 159.285 386.86 159.27C386.716 159.256 386.582 159.197 386.477 159.103L381.847 155.12L380.267 153.76C380.052 153.588 379.887 153.365 379.785 153.111C379.687 152.857 379.652 152.581 379.687 152.31L396.003 152.433Z" fill="#FC9D9D"/>
<path d="M394.349 124.738L394.763 134.429C394.763 134.429 393.685 149.382 384.078 148.096C373.018 146.649 378.153 125.026 378.153 125.026L394.349 124.738Z" fill="#FC9D9D"/>
<path opacity="0.15" d="M385.901 148.625C387.882 148.351 389.705 147.381 391.036 145.888C391.075 145.85 391.096 145.797 391.096 145.743C391.096 145.689 391.075 145.637 391.036 145.599C390.998 145.56 390.945 145.539 390.889 145.54C390.836 145.54 390.783 145.562 390.745 145.6C389.698 146.749 388.349 147.582 386.853 148.003C383.871 148.663 381.233 147.3 380.267 146.345L379.895 149.822C380.927 150.027 381.988 150.027 383.017 149.821C384.046 149.616 385.026 149.209 385.901 148.625Z" fill="black"/>
<path opacity="0.15" d="M383.084 143.449C383.081 143.41 383.084 143.371 383.098 143.333C383.109 143.296 383.13 143.262 383.158 143.235C383.186 143.207 383.221 143.185 383.256 143.172C383.295 143.158 383.333 143.154 383.372 143.158C383.797 143.225 384.226 143.266 384.658 143.281C384.735 143.281 384.809 143.311 384.865 143.366C384.918 143.42 384.949 143.495 384.949 143.572C384.949 143.649 384.918 143.724 384.865 143.778C384.809 143.833 384.735 143.864 384.658 143.864C384.205 143.79 383.748 143.748 383.291 143.737C383.165 143.656 383 143.488 383.084 143.449Z" fill="black"/>
<path opacity="0.15" d="M381.549 142.12C381.514 142.105 381.486 142.083 381.458 142.055C381.433 142.027 381.416 141.995 381.402 141.96C381.391 141.925 381.384 141.887 381.388 141.85C381.391 141.813 381.398 141.776 381.416 141.743C381.433 141.709 381.458 141.68 381.486 141.656C381.514 141.631 381.546 141.613 381.581 141.602C381.619 141.591 381.655 141.588 381.693 141.592C381.732 141.595 381.767 141.607 381.799 141.625C384.7 142.577 385.901 141.21 386.273 140.547C386.291 140.514 386.316 140.484 386.344 140.461C386.375 140.437 386.407 140.421 386.446 140.411C386.481 140.401 386.519 140.399 386.555 140.405C386.593 140.411 386.628 140.425 386.66 140.445C386.692 140.465 386.72 140.492 386.741 140.523C386.758 140.554 386.772 140.59 386.779 140.627C386.786 140.664 386.786 140.702 386.776 140.738C386.765 140.775 386.751 140.809 386.727 140.838C386.354 141.498 385.279 142.784 382.835 142.412C382.399 142.349 381.971 142.251 381.549 142.12Z" fill="black"/>
<path d="M385.487 135.992C385.968 135.992 386.358 135.602 386.358 135.121C386.358 134.64 385.968 134.25 385.487 134.25C385.006 134.25 384.616 134.64 384.616 135.121C384.616 135.602 385.006 135.992 385.487 135.992Z" fill="black"/>
<path d="M385.111 135.039C385.227 135.039 385.318 134.946 385.318 134.832C385.318 134.718 385.227 134.625 385.111 134.625C384.995 134.625 384.904 134.718 384.904 134.832C384.904 134.946 384.995 135.039 385.111 135.039Z" fill="white"/>
<path d="M378.651 135.992C379.133 135.992 379.522 135.602 379.522 135.121C379.522 134.64 379.133 134.25 378.651 134.25C378.17 134.25 377.78 134.64 377.78 135.121C377.78 135.602 378.17 135.992 378.651 135.992Z" fill="black"/>
<path d="M378.279 135.039C378.395 135.039 378.486 134.946 378.486 134.832C378.486 134.718 378.395 134.625 378.279 134.625C378.163 134.625 378.072 134.718 378.072 134.832C378.072 134.946 378.163 135.039 378.279 135.039Z" fill="white"/>
<path opacity="0.15" d="M381.219 139.096C381.254 138.819 381.395 138.567 381.609 138.39C381.827 138.213 382.101 138.125 382.378 138.144C382.504 138.144 382.585 138.271 382.585 138.436C382.585 138.601 382.462 138.643 382.297 138.643C382.227 138.637 382.157 138.646 382.09 138.668C382.02 138.69 381.96 138.724 381.904 138.771C381.851 138.817 381.805 138.873 381.774 138.936C381.742 138.999 381.725 139.068 381.718 139.138C381.711 139.209 381.721 139.28 381.742 139.347C381.763 139.414 381.798 139.477 381.844 139.531C381.89 139.584 381.946 139.629 382.009 139.661C382.072 139.693 382.143 139.712 382.213 139.718L383.372 139.802C383.498 139.802 383.579 139.925 383.579 140.09C383.579 140.255 383.456 140.297 383.291 140.297L382.129 140.217C381.992 140.209 381.862 140.174 381.739 140.112C381.619 140.05 381.51 139.964 381.426 139.858C381.338 139.753 381.279 139.63 381.24 139.499C381.205 139.368 381.198 139.23 381.219 139.096Z" fill="black"/>
<path d="M375.339 134.125V135.119C375.325 135.586 375.402 136.05 375.571 136.485C375.739 136.92 375.992 137.317 376.319 137.652C376.642 137.987 377.032 138.253 377.461 138.435C377.889 138.617 378.353 138.711 378.816 138.711C379.284 138.711 379.747 138.617 380.176 138.435C380.604 138.253 380.994 137.987 381.317 137.652C381.644 137.317 381.897 136.92 382.065 136.485C382.234 136.05 382.311 135.586 382.297 135.119V134.125C382.287 133.838 382.185 133.562 382.006 133.339H383.372C383.274 133.444 383.2 133.568 383.151 133.703C383.102 133.838 383.077 133.982 383.084 134.125V135.119C383.07 135.586 383.147 136.05 383.316 136.485C383.485 136.92 383.737 137.317 384.064 137.652C384.387 137.987 384.777 138.253 385.206 138.435C385.634 138.617 386.098 138.711 386.562 138.711C387.029 138.711 387.492 138.617 387.921 138.435C388.349 138.253 388.739 137.987 389.062 137.652C389.389 137.317 389.642 136.92 389.811 136.485C389.979 136.05 390.056 135.586 390.042 135.119V134.125C390.039 133.785 389.905 133.46 389.663 133.22C389.424 132.98 389.098 132.844 388.757 132.843H376.579C376.41 132.831 376.238 132.856 376.08 132.917C375.922 132.978 375.778 133.072 375.659 133.195C375.543 133.317 375.451 133.464 375.395 133.625C375.339 133.785 375.321 133.956 375.339 134.125ZM384.366 133.3H388.715C388.922 133.307 389.119 133.392 389.263 133.538C389.41 133.684 389.494 133.88 389.501 134.087V135.081C389.501 135.873 389.185 136.632 388.627 137.192C388.068 137.752 387.306 138.066 386.516 138.066C385.726 138.066 384.963 137.752 384.405 137.192C383.846 136.632 383.53 135.873 383.53 135.081V134.087C383.565 133.883 383.667 133.697 383.818 133.556C383.969 133.414 384.162 133.325 384.366 133.3ZM375.711 134.125C375.718 133.919 375.803 133.723 375.95 133.577C376.094 133.431 376.291 133.346 376.498 133.339H380.889C381.096 133.346 381.293 133.431 381.437 133.577C381.584 133.723 381.669 133.919 381.676 134.125V135.119C381.676 135.911 381.359 136.671 380.801 137.23C380.243 137.791 379.48 138.105 378.69 138.105C377.9 138.105 377.137 137.791 376.579 137.23C376.02 136.671 375.704 135.911 375.704 135.119L375.711 134.125Z" fill="black"/>
<path d="M375.487 129.969C370.949 129.618 365.905 122.146 372.571 117.548C372.571 117.548 376.274 115.982 376.274 119.902C379.354 114.282 381.075 121.11 381.075 121.11C381.075 121.11 384.468 114.215 390.791 119.269C393.664 115.824 395.273 119.621 394.581 120.938C398.146 118.581 401.651 124.359 398.838 129.413C398.381 130.232 398.174 131.665 397.461 131.486C395.311 130.952 394.482 132.125 394.437 134.025C394.402 135.35 392.87 135.22 392.884 133.934C392.884 132.582 392.997 128.985 392.111 128.985C391.019 128.985 390.387 131.11 389.238 129.73C388.09 128.349 390.85 126.695 389.238 125.602C387.703 124.559 379.881 130.302 375.487 129.969Z" fill="black"/>
<path d="M393.85 135.782C393.478 137.44 393.063 138.683 395.22 138.515C399.319 138.227 399.786 132.719 397.373 131.641C395.266 130.689 394.563 132.719 394.563 132.719L393.85 135.782Z" fill="#FC9D9D"/>
<path opacity="0.15" d="M397.615 134.223C397.531 134.345 397.408 134.345 397.24 134.303C397.134 134.208 397.008 134.14 396.871 134.104C396.734 134.068 396.59 134.065 396.453 134.096C396.246 134.096 396.081 134.303 395.873 134.595C395.645 134.97 395.515 135.398 395.501 135.838L395.42 136.334C395.42 136.46 395.294 136.541 395.129 136.541C394.964 136.541 394.921 136.418 394.921 136.253L395.006 135.754C395.027 135.219 395.171 134.696 395.42 134.223C395.526 134.048 395.663 133.896 395.824 133.776C395.989 133.655 396.175 133.568 396.372 133.52C396.783 133.467 397.194 133.571 397.531 133.812C397.615 133.833 397.661 133.956 397.615 134.223Z" fill="black"/>
<path opacity="0.15" d="M361.022 170.754L362.139 166.459C362.248 165.601 363.755 165.675 363.801 166.574L368.111 225.198H363.896L361.022 170.754Z" fill="#231F20"/>
<circle cx="248.988" cy="217.725" r="24.8987" fill="#FCF8CA"/>
<circle cx="248.988" cy="217.724" r="16.1505" fill="#D8C613"/>
<path d="M248.988 221.764C249.732 221.764 250.334 221.162 250.334 220.456V209.652C250.334 208.909 249.732 208.306 248.988 208.306C248.244 208.306 247.642 208.909 247.642 209.652V220.381C247.642 221.163 248.244 221.764 248.988 221.764ZM248.988 223.783C248.059 223.783 247.306 224.537 247.306 225.466C247.306 226.395 248.059 227.11 248.988 227.11C249.917 227.11 250.67 226.357 250.67 225.466C250.67 224.574 249.917 223.783 248.988 223.783Z" fill="#FDF6BF"/>
</svg>
