<svg width="1056" height="505" viewBox="0 0 1056 505" fill="none" xmlns="http://www.w3.org/2000/svg">
<rect width="1056" height="505" fill="#161616"/>
<rect x="109.512" width="836.978" height="505" fill="#3D3D3D"/>
<g clip-path="url(#clip0_450_21262)">
<path fill-rule="evenodd" clip-rule="evenodd" d="M528 302C537.67 302 547.122 299.067 555.161 293.573C563.201 288.079 569.467 280.27 573.168 271.134C576.868 261.998 577.836 251.944 575.95 242.245C574.063 232.546 569.407 223.637 562.57 216.645C555.733 209.652 547.021 204.89 537.538 202.961C528.054 201.031 518.224 202.022 509.291 205.806C500.358 209.59 492.723 215.999 487.351 224.221C481.979 232.444 479.111 242.111 479.111 252C479.111 265.261 484.262 277.979 493.431 287.355C502.599 296.732 515.034 302 528 302ZM521.373 229.778L552.064 247.222C552.9 247.707 553.596 248.409 554.08 249.259C554.563 250.108 554.818 251.073 554.818 252.056C554.818 253.038 554.563 254.003 554.08 254.853C553.596 255.702 552.9 256.404 552.064 256.889L521.373 274.222C520.401 274.772 519.307 275.059 518.196 275.056C517.085 275.052 515.993 274.758 515.024 274.201C514.055 273.645 513.242 272.844 512.661 271.875C512.079 270.907 511.75 269.802 511.704 268.667V235.333C511.75 234.198 512.079 233.093 512.661 232.125C513.242 231.156 514.055 230.355 515.024 229.799C515.993 229.242 517.085 228.948 518.196 228.944C519.307 228.941 520.401 229.227 521.373 229.778Z" fill="white"/>
</g>
<defs>
<clipPath id="clip0_450_21262">
<rect width="97.7778" height="100" fill="white" transform="translate(479.111 202)"/>
</clipPath>
</defs>
</svg>
