<svg width="181" height="24" viewBox="0 0 181 24" fill="none" xmlns="http://www.w3.org/2000/svg">
<path d="M12 17.27L18.18 21L16.54 13.97L22 9.24L14.81 8.63L12 2L9.19 8.63L2 9.24L7.46 13.97L5.82 21L12 17.27Z" fill="#FCE91B"/>
<path d="M36 17.27L42.18 21L40.54 13.97L46 9.24L38.81 8.63L36 2L33.19 8.63L26 9.24L31.46 13.97L29.82 21L36 17.27Z" fill="#FCE91B"/>
<mask id="mask0_417_16853" style="mask-type:alpha" maskUnits="userSpaceOnUse" x="48" y="0" width="24" height="24">
<path d="M60 17.27L66.18 21L64.54 13.97L70 9.24L62.81 8.63L60 2L57.19 8.63L50 9.24L55.46 13.97L53.82 21L60 17.27Z" fill="black"/>
</mask>
<g mask="url(#mask0_417_16853)">
<rect x="48" width="12" height="24" fill="#FCE91B"/>
<rect x="60" width="12" height="24" fill="#9D9EA1"/>
</g>
<path d="M84 17.27L90.18 21L88.54 13.97L94 9.24L86.81 8.63L84 2L81.19 8.63L74 9.24L79.46 13.97L77.82 21L84 17.27Z" fill="#9D9EA1"/>
<path d="M108 17.27L114.18 21L112.54 13.97L118 9.24L110.81 8.63L108 2L105.19 8.63L98 9.24L103.46 13.97L101.82 21L108 17.27Z" fill="#9D9EA1"/>
<path d="M132.13 17.168C131.495 17.168 130.917 17.056 130.394 16.832C129.881 16.5987 129.47 16.2487 129.162 15.782C128.854 15.3153 128.691 14.732 128.672 14.032H130.142C130.161 14.5547 130.338 14.998 130.674 15.362C131.019 15.7167 131.505 15.894 132.13 15.894C132.727 15.894 133.185 15.7307 133.502 15.404C133.819 15.068 133.978 14.6527 133.978 14.158C133.978 13.5607 133.763 13.1173 133.334 12.828C132.914 12.5387 132.396 12.394 131.78 12.394H131.052V11.162H131.794C132.345 11.162 132.788 11.0313 133.124 10.77C133.469 10.5087 133.642 10.14 133.642 9.664C133.642 9.26267 133.507 8.936 133.236 8.684C132.975 8.432 132.601 8.306 132.116 8.306C131.612 8.306 131.215 8.45533 130.926 8.754C130.637 9.04333 130.478 9.40733 130.45 9.846H128.98C128.999 9.27667 129.139 8.782 129.4 8.362C129.671 7.942 130.039 7.61533 130.506 7.382C130.973 7.14867 131.509 7.032 132.116 7.032C132.769 7.032 133.315 7.14867 133.754 7.382C134.202 7.606 134.538 7.914 134.762 8.306C134.995 8.68867 135.112 9.10867 135.112 9.566C135.112 10.0887 134.967 10.546 134.678 10.938C134.389 11.33 134.001 11.5913 133.516 11.722C134.076 11.8433 134.538 12.1187 134.902 12.548C135.266 12.968 135.448 13.514 135.448 14.186C135.448 14.7273 135.322 15.2267 135.07 15.684C134.818 16.132 134.445 16.4913 133.95 16.762C133.455 17.0327 132.849 17.168 132.13 17.168ZM138.011 17.084C137.731 17.084 137.498 16.9953 137.311 16.818C137.134 16.6313 137.045 16.412 137.045 16.16C137.045 15.8987 137.134 15.6793 137.311 15.502C137.498 15.3153 137.731 15.222 138.011 15.222C138.291 15.222 138.52 15.3153 138.697 15.502C138.874 15.6793 138.963 15.8987 138.963 16.16C138.963 16.412 138.874 16.6313 138.697 16.818C138.52 16.9953 138.291 17.084 138.011 17.084ZM144.13 17.168C143.44 17.168 142.842 17.0467 142.338 16.804C141.834 16.552 141.433 16.2113 141.134 15.782C140.845 15.3433 140.668 14.8487 140.602 14.298H142.058C142.152 14.7647 142.385 15.152 142.758 15.46C143.132 15.7587 143.594 15.908 144.144 15.908C144.555 15.908 144.91 15.81 145.208 15.614C145.507 15.4087 145.74 15.138 145.908 14.802C146.076 14.466 146.16 14.088 146.16 13.668C146.16 13.0053 145.974 12.478 145.6 12.086C145.227 11.6847 144.756 11.484 144.186 11.484C143.701 11.484 143.286 11.6007 142.94 11.834C142.595 12.058 142.343 12.3427 142.184 12.688H140.77L141.61 7.2H146.902V8.502H142.73L142.226 11.12C142.441 10.8773 142.735 10.6767 143.108 10.518C143.491 10.35 143.92 10.266 144.396 10.266C145.059 10.266 145.628 10.42 146.104 10.728C146.58 11.0267 146.944 11.4327 147.196 11.946C147.458 12.4593 147.588 13.0287 147.588 13.654C147.588 14.3073 147.448 14.9 147.168 15.432C146.888 15.964 146.487 16.3887 145.964 16.706C145.451 17.014 144.84 17.168 144.13 17.168ZM155.691 19.03C155.168 18.526 154.697 17.9333 154.277 17.252C153.866 16.58 153.535 15.8333 153.283 15.012C153.04 14.1813 152.919 13.29 152.919 12.338C152.919 11.386 153.04 10.4993 153.283 9.678C153.535 8.84733 153.866 8.096 154.277 7.424C154.697 6.74267 155.168 6.15 155.691 5.646H157.175V5.786C156.335 6.654 155.658 7.648 155.145 8.768C154.641 9.888 154.389 11.078 154.389 12.338C154.389 13.598 154.641 14.788 155.145 15.908C155.658 17.028 156.339 18.022 157.189 18.89V19.03H155.691ZM161.6 17.168C160.946 17.168 160.354 17.0513 159.822 16.818C159.299 16.5753 158.879 16.2393 158.562 15.81C158.254 15.3807 158.1 14.8767 158.1 14.298C158.1 13.71 158.263 13.1827 158.59 12.716C158.926 12.2493 159.369 11.932 159.92 11.764C159.425 11.568 159.042 11.2833 158.772 10.91C158.501 10.5273 158.366 10.1073 158.366 9.65C158.366 9.174 158.492 8.74 158.744 8.348C158.996 7.94667 159.36 7.62933 159.836 7.396C160.321 7.15333 160.909 7.032 161.6 7.032C162.29 7.032 162.874 7.15333 163.35 7.396C163.835 7.62933 164.204 7.94667 164.456 8.348C164.708 8.74 164.834 9.174 164.834 9.65C164.834 10.098 164.694 10.518 164.414 10.91C164.143 11.2927 163.76 11.5773 163.266 11.764C163.816 11.9413 164.255 12.2633 164.582 12.73C164.918 13.1873 165.086 13.71 165.086 14.298C165.086 14.8767 164.932 15.3807 164.624 15.81C164.316 16.2393 163.896 16.5753 163.364 16.818C162.841 17.0513 162.253 17.168 161.6 17.168ZM161.6 11.288C162.141 11.288 162.566 11.148 162.874 10.868C163.191 10.588 163.35 10.2287 163.35 9.79C163.35 9.29533 163.196 8.91733 162.888 8.656C162.58 8.39467 162.15 8.264 161.6 8.264C161.049 8.264 160.62 8.39467 160.312 8.656C160.004 8.91733 159.85 9.29533 159.85 9.79C159.85 10.2287 160.004 10.588 160.312 10.868C160.62 11.148 161.049 11.288 161.6 11.288ZM161.6 15.908C162.272 15.908 162.776 15.7493 163.112 15.432C163.448 15.1053 163.616 14.69 163.616 14.186C163.616 13.626 163.434 13.1967 163.07 12.898C162.715 12.59 162.225 12.436 161.6 12.436C160.974 12.436 160.48 12.59 160.116 12.898C159.752 13.1967 159.57 13.626 159.57 14.186C159.57 14.69 159.738 15.1053 160.074 15.432C160.419 15.7493 160.928 15.908 161.6 15.908ZM170.733 17.168C170.015 17.168 169.408 17.0327 168.913 16.762C168.419 16.4913 168.017 16.132 167.709 15.684C167.411 15.236 167.196 14.732 167.065 14.172C166.935 13.612 166.869 13.038 166.869 12.45C166.869 11.3673 167.019 10.42 167.317 9.608C167.625 8.796 168.064 8.166 168.633 7.718C169.203 7.26067 169.893 7.032 170.705 7.032C171.349 7.032 171.9 7.158 172.357 7.41C172.815 7.662 173.169 7.998 173.421 8.418C173.683 8.838 173.841 9.29533 173.897 9.79H172.511C172.427 9.30467 172.227 8.93133 171.909 8.67C171.592 8.40867 171.186 8.278 170.691 8.278C170.01 8.278 169.445 8.6 168.997 9.244C168.559 9.87867 168.325 10.8587 168.297 12.184C168.521 11.7733 168.867 11.4233 169.333 11.134C169.809 10.8447 170.355 10.7 170.971 10.7C171.522 10.7 172.035 10.8307 172.511 11.092C172.997 11.3533 173.389 11.722 173.687 12.198C173.995 12.6647 174.149 13.22 174.149 13.864C174.149 14.4333 174.009 14.97 173.729 15.474C173.449 15.978 173.053 16.3887 172.539 16.706C172.035 17.014 171.433 17.168 170.733 17.168ZM170.649 15.88C171.041 15.88 171.391 15.796 171.699 15.628C172.007 15.46 172.25 15.2313 172.427 14.942C172.605 14.6433 172.693 14.3073 172.693 13.934C172.693 13.3367 172.497 12.8607 172.105 12.506C171.723 12.1513 171.233 11.974 170.635 11.974C170.243 11.974 169.889 12.0627 169.571 12.24C169.263 12.4173 169.021 12.6553 168.843 12.954C168.666 13.2433 168.577 13.5653 168.577 13.92C168.577 14.3027 168.666 14.6433 168.843 14.942C169.03 15.2313 169.277 15.46 169.585 15.628C169.903 15.796 170.257 15.88 170.649 15.88ZM175.253 19.03V18.89C176.093 18.022 176.77 17.028 177.283 15.908C177.797 14.788 178.053 13.598 178.053 12.338C178.053 11.078 177.797 9.888 177.283 8.768C176.779 7.648 176.107 6.654 175.267 5.786V5.646H176.751C177.265 6.15 177.731 6.74267 178.151 7.424C178.571 8.096 178.903 8.84733 179.145 9.678C179.397 10.4993 179.523 11.386 179.523 12.338C179.523 13.29 179.397 14.1813 179.145 15.012C178.903 15.8333 178.571 16.58 178.151 17.252C177.731 17.9333 177.265 18.526 176.751 19.03H175.253Z" fill="#C1C2C4"/>
<path d="M128 18.75H180.167V19.45H128V18.75Z" fill="#C1C2C4"/>
</svg>
